<svg xmlns="http://www.w3.org/2000/svg" width="39" height="38" viewBox="0 0 39 38" fill="none">
<g clip-path="url(#clip0_293_316)">
<path d="M35.75 28.5001H3.25M35.75 34.8334H3.25M9.77618 12.6923L9.75 12.6667M29.2762 12.6923L29.25 12.6667M4.875 22.1667H34.125C35.0225 22.1667 35.75 21.4579 35.75 20.5834V4.75008C35.75 3.87564 35.0225 3.16675 34.125 3.16675H4.875C3.97754 3.16675 3.25 3.87564 3.25 4.75008V20.5834C3.25 21.4579 3.97754 22.1667 4.875 22.1667ZM22.75 12.6667C22.75 14.4157 21.295 15.8334 19.5 15.8334C17.705 15.8334 16.25 14.4157 16.25 12.6667C16.25 10.9178 17.705 9.50008 19.5 9.50008C21.295 9.50008 22.75 10.9178 22.75 12.6667Z" stroke="white" stroke-width="1.5" stroke-linecap="round" stroke-linejoin="round"/>
</g>
<defs>
<clipPath id="clip0_293_316">
<rect width="39" height="38" fill="white"/>
</clipPath>
</defs>
</svg>