
<svg width="38" height="38" viewBox="0 0 38 38" fill="none" xmlns="http://www.w3.org/2000/svg">
<g clip-path="url(#clip0_293_31)">
<path d="M25.3335 12.6666C25.3335 11.7921 26.0424 11.0833 26.9168 11.0833H31.6668C32.5413 11.0833 33.2502 11.7921 33.2502 12.6666V17.4166C33.2502 18.2911 32.5413 18.9999 31.6668 18.9999H26.9168C26.0424 18.9999 25.3335 18.2911 25.3335 17.4166V12.6666Z" stroke="white" stroke-width="1.5" stroke-linecap="round" stroke-linejoin="round"/>
<path d="M25.3335 26.9166C25.3335 26.0421 26.0424 25.3333 26.9168 25.3333H31.6668C32.5413 25.3333 33.2502 26.0421 33.2502 26.9166V31.6666C33.2502 32.5411 32.5413 33.2499 31.6668 33.2499H26.9168C26.0424 33.2499 25.3335 32.5411 25.3335 31.6666V26.9166Z" stroke="white" stroke-width="1.5" stroke-linecap="round" stroke-linejoin="round"/>
<path d="M11.0835 26.9166C11.0835 26.0421 11.7924 25.3333 12.6668 25.3333H17.4168C18.2913 25.3333 19.0002 26.0421 19.0002 26.9166V31.6666C19.0002 32.5411 18.2913 33.2499 17.4168 33.2499H12.6668C11.7924 33.2499 11.0835 32.5411 11.0835 31.6666V26.9166Z" stroke="white" stroke-width="1.5" stroke-linecap="round" stroke-linejoin="round"/>
<path d="M4.75 7.125C4.75 5.81332 5.81332 4.75 7.125 4.75H16.625C17.9366 4.75 19 5.81332 19 7.125V16.625C19 17.9366 17.9366 19 16.625 19H7.125C5.81332 19 4.75 17.9366 4.75 16.625V7.125Z" stroke="white" stroke-width="1.5" stroke-linecap="round" stroke-linejoin="round"/>
</g>
<defs>
<clipPath id="clip0_293_31">
<rect width="38" height="38" fill="white"/>
</clipPath>
</defs>
</svg>
