<svg xmlns="http://www.w3.org/2000/svg" width="65" height="64" viewBox="0 0 65 64" fill="none">
<path d="M39.1 16V33.6M39.1 33.6C36.449 33.6 34.3 35.749 34.3 38.4C34.3 41.051 36.449 43.2 39.1 43.2M39.1 33.6C41.751 33.6 43.9 35.749 43.9 38.4C43.9 41.051 41.751 43.2 39.1 43.2M39.1 43.2V48M26.3 48V30.4M26.3 30.4C23.649 30.4 21.5 28.251 21.5 25.6C21.5 22.949 23.649 20.8 26.3 20.8M26.3 30.4C28.951 30.4 31.1 28.251 31.1 25.6C31.1 22.949 28.951 20.8 26.3 20.8M26.3 20.8V16" stroke="#04BC9B" stroke-width="3" stroke-linecap="round" stroke-linejoin="round"/>
</svg>