<svg width="1161" height="444" viewBox="0 0 1161 444" fill="none" xmlns="http://www.w3.org/2000/svg">
<line x1="42.0956" y1="443.029" x2="118.096" y2="282.838" stroke="white" stroke-width="2.00175"/>
<line x1="17.1069" y1="141.944" x2="87.1681" y2="0.820964" stroke="url(#paint0_linear_52_832)" stroke-width="2.00175"/>
<line x1="194.781" y1="431.954" x2="239.82" y2="337.872" stroke="white" stroke-width="2.00175"/>
<line x1="840.343" y1="100.68" x2="885.383" y2="6.59755" stroke="white" stroke-width="2.00175"/>
<line x1="319.894" y1="419.933" x2="354.924" y2="348.871" stroke="url(#paint1_linear_52_832)" stroke-width="2.00175"/>
<line x1="748.278" y1="423.933" x2="799.323" y2="325.847" stroke="url(#paint2_linear_52_832)" stroke-width="2.00175"/>
<line x1="52.1813" y1="148.86" x2="1.12026" y2="54.7439" stroke="white" stroke-width="2.00175"/>
<line x1="683.105" y1="113.859" x2="698.118" y2="83.8328" stroke="url(#paint3_linear_52_832)" stroke-width="2.00175"/>
<line x1="1061.1" y1="240.781" x2="1159.19" y2="39.6051" stroke="white" stroke-width="2.00175"/>
<line x1="694.115" y1="121.866" x2="721.138" y2="67.8192" stroke="white" stroke-width="2.00175"/>
<line x1="902.413" y1="424.934" x2="953.457" y2="326.848" stroke="white" stroke-width="2.00175"/>
<line y1="-1.00087" x2="134.658" y2="-1.00087" transform="matrix(-0.458791 -0.888544 -0.888544 0.458791 940.059 424.94)" stroke="white" stroke-width="2.00175"/>
<line x1="610.157" y1="101.558" x2="568.121" y2="20.4871" stroke="url(#paint4_linear_52_832)" stroke-width="2.00175"/>
<line y1="-1.00087" x2="86.395" y2="-1.00087" transform="matrix(-0.461638 -0.887069 -0.887069 0.461638 105.882 403.905)" stroke="url(#paint5_linear_52_832)" stroke-width="2.00175"/>
<line y1="-1.00087" x2="86.395" y2="-1.00087" transform="matrix(-0.461638 -0.887069 -0.887069 0.461638 485.784 82.6523)" stroke="white" stroke-width="2.00175"/>
<line x1="917.436" y1="203.68" x2="818.35" y2="22.5219" stroke="url(#paint6_linear_52_832)" stroke-width="2.00175"/>
<line x1="432.995" y1="96.5404" x2="404.97" y2="40.4915" stroke="white" stroke-width="2.00175"/>
<line x1="713.245" y1="387.803" x2="671.208" y2="305.732" stroke="white" stroke-width="2.00175"/>
<defs>
<linearGradient id="paint0_linear_52_832" x1="88.4103" y1="1.43765" x2="-11.6543" y2="27.5362" gradientUnits="userSpaceOnUse">
<stop stop-color="#8259FF"/>
<stop offset="0.684099" stop-color="#2330FA"/>
<stop offset="0.973958" stop-color="#6070FF"/>
</linearGradient>
<linearGradient id="paint1_linear_52_832" x1="356.168" y1="349.485" x2="299.12" y2="387.572" gradientUnits="userSpaceOnUse">
<stop stop-color="#8259FF"/>
<stop offset="0.684099" stop-color="#2330FA"/>
<stop offset="0.973958" stop-color="#6070FF"/>
</linearGradient>
<linearGradient id="paint2_linear_52_832" x1="800.553" y1="326.488" x2="721.697" y2="360.96" gradientUnits="userSpaceOnUse">
<stop stop-color="#8259FF"/>
<stop offset="0.684099" stop-color="#2330FA"/>
<stop offset="0.973958" stop-color="#6070FF"/>
</linearGradient>
<linearGradient id="paint3_linear_52_832" x1="699.358" y1="84.4531" x2="678.256" y2="109.312" gradientUnits="userSpaceOnUse">
<stop stop-color="#8259FF"/>
<stop offset="0.684099" stop-color="#2330FA"/>
<stop offset="0.973958" stop-color="#6070FF"/>
</linearGradient>
<linearGradient id="paint4_linear_52_832" x1="569.352" y1="19.8487" x2="561.055" y2="95.394" gradientUnits="userSpaceOnUse">
<stop stop-color="#8259FF"/>
<stop offset="0.684099" stop-color="#2330FA"/>
<stop offset="0.973958" stop-color="#6070FF"/>
</linearGradient>
<linearGradient id="paint5_linear_52_832" x1="86.395" y1="0.385965" x2="24.5646" y2="-38.5883" gradientUnits="userSpaceOnUse">
<stop stop-color="#8259FF"/>
<stop offset="0.684099" stop-color="#2330FA"/>
<stop offset="0.973958" stop-color="#6070FF"/>
</linearGradient>
<linearGradient id="paint6_linear_52_832" x1="819.567" y1="21.8564" x2="766.399" y2="122.921" gradientUnits="userSpaceOnUse">
<stop stop-color="#8259FF"/>
<stop offset="0.684099" stop-color="#2330FA"/>
<stop offset="0.973958" stop-color="#6070FF"/>
</linearGradient>
</defs>
</svg>
