<svg width="85" height="85" viewBox="0 0 85 85" fill="none" xmlns="http://www.w3.org/2000/svg">
<path d="M0 40C0 17.9086 17.9086 0 40 0H45C67.0914 0 85 17.9086 85 40V45C85 67.0914 67.0914 85 45 85H40C17.9086 85 0 67.0914 0 45V40Z" fill="#009292"/>
<path fill-rule="evenodd" clip-rule="evenodd" d="M28.9178 17.1886C28.9178 15.5022 30.2849 14.1351 31.9713 14.1351H34.1008C34.1431 15.2446 34.7008 16.6588 35.7822 16.6588H48.7231C49.8046 16.6588 50.3622 15.2446 50.4046 14.1351H52.3576C54.044 14.1351 55.4111 15.5022 55.4111 17.1886V68.5976C55.4111 70.284 54.044 71.6511 52.3576 71.6511H31.9713C30.2849 71.6511 28.9178 70.284 28.9178 68.5976V17.1886ZM31.9713 12.9341C29.6216 12.9341 27.7168 14.8389 27.7168 17.1886V68.5976C27.7168 70.9473 29.6216 72.8521 31.9713 72.8521H52.3576C54.7074 72.8521 56.6122 70.9473 56.6122 68.5976V17.1886C56.6122 14.8389 54.7074 12.9341 52.3576 12.9341H31.9713Z" fill="white"/>
</svg>
