<svg width="85" height="85" viewBox="0 0 85 85" fill="none" xmlns="http://www.w3.org/2000/svg">
<path d="M0 40C0 17.9086 17.9086 0 40 0H45C67.0914 0 85 17.9086 85 40V45C85 67.0914 67.0914 85 45 85H40C17.9086 85 0 67.0914 0 45V40Z" fill="#009292"/>
<path fill-rule="evenodd" clip-rule="evenodd" d="M70.1263 19.6957H16.7972C16.3549 19.6957 15.9965 20.0542 15.9965 20.4964V53.4817C15.9965 53.9239 16.3549 54.2824 16.7972 54.2824H70.1263C70.5685 54.2824 70.927 53.9239 70.927 53.4817V20.4964C70.927 20.0542 70.5685 19.6957 70.1263 19.6957ZM16.7972 18.4946C15.6916 18.4946 14.7954 19.3908 14.7954 20.4964V53.4817C14.7954 54.5872 15.6916 55.4834 16.7972 55.4834H41V63H34V66H41H42.2H46H47.2H54V63H47.2V55.4834H70.1263C71.2318 55.4834 72.128 54.5872 72.128 53.4817V20.4964C72.128 19.3908 71.2318 18.4946 70.1263 18.4946H16.7972ZM46 63H42.2V55.4834H46V63ZM46.4243 43.4245L61.4243 28.4243L60.5757 27.5757L45.9727 42.1791L38.3951 35.5483L38.0431 35.2402L37.6585 35.5065L24.6585 44.5067L25.3415 45.4933L37.9569 36.7594L45.6049 43.4518L46.0273 43.8215L46.4243 43.4245Z" fill="white"/>
</svg>
