<svg width="85" height="85" viewBox="0 0 85 85" fill="none" xmlns="http://www.w3.org/2000/svg">
<path d="M0 40C0 17.9086 17.9086 0 40 0H45C67.0914 0 85 17.9086 85 40V45C85 67.0914 67.0914 85 45 85H40C17.9086 85 0 67.0914 0 45V40Z" fill="#009292"/>
<path fill-rule="evenodd" clip-rule="evenodd" d="M17.8314 23.3749V34H67.1684V23.3749H17.8314ZM17.8314 63.4728V35.2H67.1684V63.4728H17.8314ZM17.6312 22.1738C17.0785 22.1738 16.6304 22.6219 16.6304 23.1747V63.673C16.6304 64.2257 17.0785 64.6738 17.6312 64.6738H67.3686C67.9214 64.6738 68.3695 64.2257 68.3695 63.673V23.1747C68.3695 22.6219 67.9214 22.1738 67.3686 22.1738H17.6312ZM24.0212 30.4886C25.0417 30.4886 25.869 29.6613 25.869 28.6408C25.869 27.6203 25.0417 26.793 24.0212 26.793C23.0006 26.793 22.1733 27.6203 22.1733 28.6408C22.1733 29.6613 23.0006 30.4886 24.0212 30.4886ZM31.4134 28.6408C31.4134 29.6613 30.5861 30.4886 29.5656 30.4886C28.5451 30.4886 27.7178 29.6613 27.7178 28.6408C27.7178 27.6203 28.5451 26.793 29.5656 26.793C30.5861 26.793 31.4134 27.6203 31.4134 28.6408ZM35.1085 30.4886C36.1291 30.4886 36.9564 29.6613 36.9564 28.6408C36.9564 27.6203 36.1291 26.793 35.1085 26.793C34.088 26.793 33.2607 27.6203 33.2607 28.6408C33.2607 29.6613 34.088 30.4886 35.1085 30.4886Z" fill="white"/>
</svg>
