<svg width="62" height="62" viewBox="0 0 62 62" fill="none" xmlns="http://www.w3.org/2000/svg">
<circle cx="31" cy="31" r="31" fill="white"/>
<g clip-path="url(#clip0)">
<path d="M51.9629 12.476H25.1377C24.3847 12.476 23.8199 13.0856 23.8199 13.7891V48.1645C23.8199 48.9148 24.4317 49.4776 25.1377 49.4776H51.9629C52.7159 49.4776 53.2806 48.8679 53.2806 48.1645V13.7891C53.2806 13.0856 52.6688 12.476 51.9629 12.476ZM30.0792 16.556H42.927C43.6329 16.556 44.1977 17.1187 44.1977 17.8222C44.1977 18.5256 43.6329 19.0415 42.927 19.0415H30.0792C29.3732 19.0415 28.8085 18.4788 28.8085 17.7753C28.8085 17.0718 29.4203 16.556 30.0792 16.556ZM42.927 44.6003H30.0792C29.3732 44.6003 28.8085 44.0376 28.8085 43.3341C28.8085 42.6306 29.3732 42.0679 30.0792 42.0679H42.927C43.6329 42.0679 44.1977 42.6306 44.1977 43.3341C44.1977 44.0376 43.6329 44.6003 42.927 44.6003ZM47.2096 40.3327H30.0792C29.3732 40.3327 28.8085 39.7699 28.8085 39.0665C28.8085 38.363 29.3732 37.8003 30.0792 37.8003H47.2096C47.9156 37.8003 48.4803 38.363 48.4803 39.0665C48.4803 39.7699 47.9156 40.3327 47.2096 40.3327ZM28.8556 34.8458C28.8556 34.1423 29.4203 33.5795 30.1262 33.5795H42.9741C43.68 33.5795 44.2447 34.1423 44.2447 34.8458C44.2447 35.5492 43.68 36.112 42.9741 36.112H30.0792C29.4203 36.0651 28.8556 35.5023 28.8556 34.8458ZM47.2096 31.7975H30.0792C29.3732 31.7975 28.8085 31.2347 28.8085 30.5312C28.8085 29.8278 29.3732 29.265 30.0792 29.265H47.2096C47.9156 29.265 48.4803 29.8278 48.4803 30.5312C48.4803 31.2347 47.9156 31.7975 47.2096 31.7975ZM28.8556 26.3105C28.8556 25.6071 29.4203 25.0443 30.1262 25.0443H42.9741C43.68 25.0443 44.2447 25.6071 44.2447 26.3105C44.2447 27.014 43.68 27.5767 42.9741 27.5767H30.0792C29.4203 27.5299 28.8556 27.014 28.8556 26.3105ZM47.2096 23.3091H30.0792C29.3732 23.3091 28.8085 22.7464 28.8085 22.0429C28.8085 21.3395 29.3732 20.7767 30.0792 20.7767H47.2096C47.9156 20.7767 48.4803 21.3395 48.4803 22.0429C48.4332 22.7464 47.9156 23.3091 47.2096 23.3091Z" fill="url(#paint0_linear)"/>
<path d="M8.38328 21.8553H21.2311C21.9371 21.8553 22.5018 21.2925 22.5018 20.5891C22.5018 19.8856 21.9371 19.3229 21.2311 19.3229H8.38328C7.67735 19.3229 7.11261 19.8856 7.11261 20.5891C7.11261 21.2925 7.67735 21.8553 8.38328 21.8553Z" fill="url(#paint1_linear)"/>
<path d="M21.2311 36.4401H8.38328C7.67735 36.4401 7.11261 37.0028 7.11261 37.7063C7.11261 38.4097 7.67735 38.9725 8.38328 38.9725H21.2311C21.9371 38.9725 22.5018 38.4097 22.5018 37.7063C22.5018 37.0028 21.89 36.4401 21.2311 36.4401Z" fill="url(#paint2_linear)"/>
<path d="M21.2311 40.6606H8.38328C7.67735 40.6606 7.11261 41.2234 7.11261 41.9269C7.11261 42.6303 7.67735 43.1931 8.38328 43.1931H21.2311C21.9371 43.1931 22.5018 42.6303 22.5018 41.9269C22.4547 41.2234 21.89 40.6606 21.2311 40.6606Z" fill="url(#paint3_linear)"/>
<path d="M8.38328 30.3907H18.2192L16.4308 32.1259C15.9602 32.5948 15.9602 33.3921 16.4308 33.908C16.6661 34.1424 16.9956 34.2831 17.325 34.2831C17.6544 34.2831 17.9839 34.1424 18.2192 33.908L22.1253 30.0155C22.1724 29.9686 22.2194 29.8748 22.2665 29.8279C22.2665 29.781 22.3136 29.781 22.3136 29.7341C22.3606 29.6403 22.4077 29.5466 22.4077 29.4528C22.4077 29.4059 22.4077 29.4059 22.4547 29.359C22.5018 29.2183 22.5018 29.0307 22.4547 28.89C22.4547 28.8431 22.4547 28.8431 22.4077 28.7962C22.4077 28.7024 22.3606 28.6086 22.3136 28.5148C22.3136 28.4679 22.2665 28.4679 22.2665 28.421C22.2194 28.3741 22.1724 28.2803 22.1253 28.2334L18.2192 24.341C17.9839 24.1065 17.6544 23.9658 17.325 23.9658C16.9956 23.9658 16.6661 24.1065 16.4308 24.341C15.9602 24.81 15.9602 25.6072 16.4308 26.1231L18.1721 27.8583H8.38328C7.67735 27.8583 7.11261 28.421 7.11261 29.1245C7.11261 29.8279 7.67735 30.3907 8.38328 30.3907ZM17.325 33.7673C17.3721 33.7673 17.3721 33.7673 17.4191 33.7673C17.3721 33.7673 17.3721 33.7673 17.325 33.7673ZM21.9841 28.9838C21.9841 29.0776 21.9841 29.1714 21.9841 29.2652C21.9841 29.1714 21.9841 29.0776 21.9841 28.9838ZM17.2309 24.4817C17.2779 24.4817 17.2779 24.4817 17.325 24.4817C17.2779 24.4817 17.2779 24.4817 17.2309 24.4817Z" fill="url(#paint4_linear)"/>
</g>
<defs>
<linearGradient id="paint0_linear" x1="13.789" y1="21.5003" x2="93.9678" y2="57.61" gradientUnits="userSpaceOnUse">
<stop stop-color="#33E284"/>
<stop offset="1" stop-color="#5258E8"/>
</linearGradient>
<linearGradient id="paint1_linear" x1="7.34504" y1="20.6171" x2="54.081" y2="24.8198" gradientUnits="userSpaceOnUse">
<stop stop-color="#33E284"/>
<stop offset="0.864813" stop-color="#5258E8"/>
</linearGradient>
<linearGradient id="paint2_linear" x1="7.34504" y1="37.7343" x2="55.6871" y2="43.7541" gradientUnits="userSpaceOnUse">
<stop stop-color="#33E284"/>
<stop offset="1" stop-color="#5258E8"/>
</linearGradient>
<linearGradient id="paint3_linear" x1="7.34504" y1="41.9549" x2="46.8042" y2="47.6115" gradientUnits="userSpaceOnUse">
<stop stop-color="#33E284"/>
<stop offset="1" stop-color="#5258E8"/>
</linearGradient>
<linearGradient id="paint4_linear" x1="7.34486" y1="29.2386" x2="54.3864" y2="38.0577" gradientUnits="userSpaceOnUse">
<stop stop-color="#33E284"/>
<stop offset="1" stop-color="#5258E8"/>
</linearGradient>
<clipPath id="clip0">
<rect width="47" height="38" fill="white" transform="translate(7 12.0004)"/>
</clipPath>
</defs>
</svg>
