<svg width="52" height="52" viewBox="0 0 52 52" fill="none" xmlns="http://www.w3.org/2000/svg">
<circle cx="26" cy="26" r="26" fill="url(#paint0_linear)"/>
<g clip-path="url(#clip0)">
<path d="M30.7648 21.6606V20.2062H31.3746C31.9167 20.2062 32.3232 19.7907 32.3232 19.2366C32.3232 18.6826 31.9167 18.267 31.3746 18.267H21.2111C20.669 18.267 20.2625 18.6826 20.2625 19.2366C20.2625 19.7907 20.669 20.2062 21.2111 20.2062H21.8209V21.6606C21.8209 22.8379 22.2952 23.8768 23.176 24.5693L24.6667 25.8159L23.176 27.0625C22.2952 27.7551 21.8209 28.8632 21.8209 29.9713V31.4257H21.2111C20.669 31.4257 20.2625 31.8412 20.2625 32.3952C20.2625 32.9493 20.669 33.3648 21.2111 33.3648H31.3746C31.9167 33.3648 32.3232 32.9493 32.3232 32.3952C32.3232 31.8412 31.9167 31.4257 31.3746 31.4257H30.7648V30.1098C30.7648 28.9324 30.2905 27.8936 29.4097 27.201L27.919 25.9544L29.4097 24.7078C30.2905 23.8768 30.7648 22.8379 30.7648 21.6606ZM28.1901 28.7247C28.5966 29.0709 28.7999 29.5557 28.7999 30.1098V31.5642H23.8536V30.1098C23.8536 29.5557 24.0569 29.0709 24.4634 28.7247L26.2928 27.201L28.1901 28.7247ZM28.7999 21.6606C28.7999 22.2146 28.5966 22.6994 28.1901 23.0457L26.3606 24.5693L24.5312 23.0457C24.1246 22.6994 23.9213 22.2146 23.9213 21.6606V20.2062H28.8676V21.6606H28.7999Z" fill="white"/>
<path d="M34.8985 37.4509C35.3051 37.1046 35.3728 36.5506 35.034 36.1351C34.6952 35.7195 34.1532 35.6503 33.7466 35.9965C29.2069 39.5979 22.2279 39.1823 18.0947 35.1655C13.8938 31.3564 12.9452 24.3616 15.9942 19.5136C17.4171 17.0897 19.7209 15.1505 22.3634 14.3194C25.006 13.4191 27.9195 13.4191 30.4943 14.458C33.0691 15.4275 35.3051 17.3667 36.6602 19.7907C37.3378 21.0373 37.8121 22.3531 38.0831 23.7382L38.2186 24.7771L38.2864 25.8159V27.1318L36.5247 25.4004C35.9826 24.8463 35.1018 24.9156 34.5597 25.4696C34.0177 26.0237 34.0854 26.924 34.6275 27.4781L38.6929 31.4949C38.964 31.7719 39.3027 31.9104 39.6415 31.9104C39.9803 31.9104 40.3191 31.7719 40.5901 31.4949L44.7911 27.4088C45.3331 26.8548 45.4009 25.9544 44.8588 25.4004C44.3168 24.8463 43.4359 24.7771 42.8939 25.3311L41.1322 27.0625V25.6774L41.0644 24.3616L40.8612 23.0457C40.5224 21.3835 39.9126 19.7214 39.0317 18.1978C37.3378 15.2198 34.5597 12.9343 31.3751 11.757C28.1906 10.5796 24.6672 10.5796 21.5503 11.757C18.3657 12.8651 15.6555 15.2198 13.9615 18.1285C12.2676 21.1758 11.59 24.7078 12.1321 28.0321C12.6064 31.3564 14.3003 34.5422 16.8073 36.7584C19.2466 38.9745 22.4989 40.3597 25.7513 40.4289C29.0036 40.6367 32.3237 39.5286 34.8985 37.4509Z" fill="white"/>
</g>
<defs>
<linearGradient id="paint0_linear" x1="-6.29032" y1="6.70968" x2="50.5437" y2="50.1319" gradientUnits="userSpaceOnUse">
<stop stop-color="#33E284"/>
<stop offset="1" stop-color="#5258E8"/>
</linearGradient>
<clipPath id="clip0">
<rect width="33.2688" height="29.5723" fill="white" transform="translate(11.9283 10.8566)"/>
</clipPath>
</defs>
</svg>
