<svg width="52" height="52" viewBox="0 0 52 52" fill="none" xmlns="http://www.w3.org/2000/svg">
<circle cx="26" cy="26" r="26" fill="url(#paint0_linear)"/>
<g clip-path="url(#clip0)">
<path d="M25.7336 29.9375C25.6665 30.0023 25.5994 30.0671 25.5322 30.1967L22.4445 35.4463C21.9746 36.0944 22.4445 36.8721 23.25 36.8721H29.4926C30.231 36.8721 30.768 36.0944 30.3652 35.4463L27.2775 30.1967C27.2104 30.0671 27.1432 30.0023 27.0761 29.9375" fill="white"/>
<path d="M38.0845 27.0859C42.4476 27.0859 45.9381 23.7158 45.9381 19.5032C45.9381 15.2906 42.3805 11.9205 38.0845 11.9205C33.7886 11.9205 30.2981 15.3554 30.2981 19.5032C30.2981 23.651 33.7886 27.0859 38.0845 27.0859ZM38.0845 19.9569C37.4804 19.8273 36.3393 19.568 36.3393 18.3367C36.3393 17.6886 36.7421 17.0405 37.6147 16.7812V16.0683H39.0914V16.846C39.964 17.1053 40.3668 17.7534 40.3668 18.4015H38.89C38.89 18.207 38.353 18.1422 38.2859 18.1422C38.0845 18.1422 37.8161 18.1422 37.8161 18.4015C37.8161 18.4663 37.8161 18.4663 37.8161 18.4663C37.8832 18.5311 38.2188 18.5959 38.4873 18.6607C39.1585 18.7903 40.3668 19.1144 40.3668 20.4106C40.3668 21.0587 40.0312 21.7068 39.0914 21.966V22.7437H37.6147V22.0308C36.8763 21.8364 36.3393 21.2531 36.3393 20.4754H37.8161C37.8161 20.6698 38.1517 20.7346 38.2859 20.7346C38.89 20.7346 38.89 20.605 38.89 20.4754C38.8229 20.1513 38.8229 20.0865 38.0845 19.9569Z" fill="white"/>
<path d="M44.7971 30.9746H7.87855C7.07305 30.9746 6.46893 30.3913 6.46893 29.6136C6.46893 28.8358 7.07305 28.2526 7.87855 28.2526H44.7971C45.6026 28.2526 46.2067 28.8358 46.2067 29.6136C46.2067 30.3265 45.5354 30.9746 44.7971 30.9746Z" fill="white"/>
<path d="M7.27433 26.7619L22.3774 26.6971C22.4445 26.6971 22.5116 26.6971 22.5787 26.6323C22.7801 26.5675 22.9144 26.4378 23.0486 26.3082C23.1829 26.049 23.1829 25.7897 23.1157 25.5305L15.4635 13.2167C15.2622 12.8279 14.7923 12.6982 14.3895 12.8927C14.2553 12.9575 14.121 13.0871 14.0539 13.2167L6.60308 25.5953C6.46884 25.8546 6.46884 26.1786 6.67021 26.4378C6.80446 26.6323 7.07296 26.7619 7.27433 26.7619ZM15.5978 18.207L15.6649 21.3179C15.6649 21.7067 15.3964 21.966 15.0608 22.0956C14.9937 22.0956 14.9265 22.1604 14.8594 22.1604C14.3895 22.1604 14.0539 21.8364 14.0539 21.3827L13.9868 18.2719C13.9868 17.8182 14.3224 17.4941 14.7923 17.4941C15.195 17.4293 15.5978 17.7534 15.5978 18.207ZM14.0539 23.5862C14.0539 23.1974 14.3895 22.8085 14.8594 22.8085C15.3293 22.8085 15.6649 23.1326 15.6649 23.5862C15.6649 23.9751 15.3964 24.2991 15.0608 24.3639L14.8594 24.4287C14.3895 24.4287 14.0539 24.0399 14.0539 23.5862C14.0539 23.651 14.0539 23.5862 14.0539 23.5862Z" fill="white"/>
</g>
<defs>
<linearGradient id="paint0_linear" x1="44.0323" y1="47.3871" x2="-13.7626" y2="17.7096" gradientUnits="userSpaceOnUse">
<stop stop-color="#8259FF"/>
<stop offset="0.684099" stop-color="#2330FA"/>
<stop offset="0.973958" stop-color="#6070FF"/>
</linearGradient>
<clipPath id="clip0">
<rect width="39.7378" height="24.9516" fill="white" transform="translate(6.46887 11.9205)"/>
</clipPath>
</defs>
</svg>
