<svg width="24" height="24" viewBox="0 0 24 24" fill="none" xmlns="http://www.w3.org/2000/svg">
<path d="M3.51472 20.4853C3.90525 20.8758 4.53841 20.8758 4.92894 20.4853L20.4853 4.92893C20.8758 4.5384 20.8758 3.90524 20.4853 3.51471C20.0948 3.12419 19.4616 3.12419 19.0711 3.51471L3.51472 19.0711C3.1242 19.4616 3.1242 20.0948 3.51472 20.4853Z" fill="#47394E"/>
<path d="M3.51457 3.51472C3.12405 3.90525 3.12405 4.53841 3.51457 4.92894L19.0709 20.4853C19.4614 20.8758 20.0946 20.8758 20.4851 20.4853C20.8757 20.0948 20.8757 19.4616 20.4851 19.0711L4.92879 3.51472C4.53826 3.1242 3.9051 3.1242 3.51457 3.51472Z" fill="#47394E"/>
</svg>
