<svg width="52" height="52" viewBox="0 0 52 52" fill="none" xmlns="http://www.w3.org/2000/svg">
<circle cx="26" cy="26" r="26" fill="url(#paint0_linear)"/>
<g clip-path="url(#clip0)">
<path d="M26.5223 17.9018C24.636 17.9018 23.0866 19.4638 23.0866 21.3655C23.0866 23.2671 24.636 24.8292 26.5223 24.8292C28.4086 24.8292 29.958 23.2671 29.958 21.3655C29.958 19.4638 28.4086 17.9018 26.5223 17.9018ZM27.7349 21.3655C27.7349 22.0446 27.196 22.588 26.5223 22.588C25.8486 22.588 25.3097 22.0446 25.3097 21.3655C25.3097 20.6863 25.8486 20.143 26.5223 20.143C27.196 20.143 27.7349 20.6863 27.7349 21.3655Z" fill="white"/>
<path d="M36.4253 32.5715H31.1707H31.036H28.8802V34.8127H31.036H31.1707H36.4253V32.5715Z" fill="white"/>
<path d="M36.0211 36.7143H35.8864H33.5959V38.9555H35.8864H36.0211H41.0736V36.7143H36.0211Z" fill="white"/>
<path d="M7.45755 20.2109H7.39019H5.03235V22.52H7.39019H7.45755H11.3648V20.2109H7.45755Z" fill="white"/>
<path d="M25.8486 27.5458C25.377 26.9345 24.8381 26.4591 24.1644 26.0516C24.1644 26.0516 24.097 26.0516 24.097 25.9837C23.8949 25.8479 23.6928 25.712 23.4907 25.6441C23.4234 25.6441 23.4234 25.6441 23.356 25.5762C23.1539 25.5083 22.9518 25.3725 22.7497 25.3046C22.6823 25.3046 22.6823 25.3046 22.615 25.2366C22.4129 25.1687 22.2108 25.1008 22.0087 25.0329C21.9413 25.0329 21.9413 25.0329 21.8739 24.965C21.6718 24.8971 21.4697 24.8971 21.2676 24.8291C21.2003 24.8291 21.1329 24.8291 21.1329 24.8291C20.8634 24.8291 20.594 24.7612 20.3245 24.7612H14.2615H13.1836H7.1206C6.78377 24.7612 6.58167 25.0329 6.58167 25.3046C6.58167 27.6816 8.26583 29.6511 10.4216 30.1945C10.5563 31.9603 11.5668 33.3865 13.1836 34.1335C13.1836 34.1335 13.1836 34.1335 13.1836 34.2015C13.1836 37.1218 15.4741 39.1593 18.7077 39.1593H19.9877H20.9308C24.636 38.8197 27.4654 35.6956 27.4654 31.9603C27.4654 30.8057 27.1959 29.6511 26.657 28.7003C26.3875 28.2928 25.9833 27.7495 25.8486 27.5458Z" fill="white"/>
<path d="M13.2512 13.4194C12.9817 13.4194 12.7122 13.5552 12.5101 13.7589C12.308 13.9627 12.2407 14.2344 12.2407 14.506V24.8971H14.0596V18.7168C15.7437 18.3772 17.0911 17.0189 17.4279 15.321H35.6169C35.9538 17.0189 37.3011 18.3772 38.9853 18.7168V24.0821C37.3011 24.4217 35.9538 25.78 35.6169 27.4779H25.5793L25.9161 28.0212C26.0509 28.2249 26.4551 28.8362 26.6572 29.1757L26.7245 29.3795H39.9284C40.4673 29.3795 40.8715 28.972 40.8715 28.4287V14.4381C40.8715 13.8269 40.4 13.4194 39.861 13.4194H13.2512ZM38.9853 25.9837V27.4779H37.5032C37.7727 26.7987 38.3116 26.2554 38.9853 25.9837ZM37.5032 15.2531H38.9853V16.7472C38.3116 16.4756 37.7727 15.9322 37.5032 15.2531ZM15.5416 15.2531C15.2722 15.9322 14.7332 16.4756 14.0596 16.7472V15.2531H15.5416Z" fill="white"/>
</g>
<defs>
<linearGradient id="paint0_linear" x1="52" y1="52" x2="12.4589" y2="22.5095" gradientUnits="userSpaceOnUse">
<stop stop-color="#8259FF"/>
<stop offset="0.545806" stop-color="#2330FA"/>
<stop offset="0.973958" stop-color="#6070FF"/>
</linearGradient>
<clipPath id="clip0">
<rect width="36.0412" height="25.8757" fill="white" transform="translate(5.03229 13.4194)"/>
</clipPath>
</defs>
</svg>
