<svg width="62" height="62" viewBox="0 0 62 62" fill="none" xmlns="http://www.w3.org/2000/svg">
<circle cx="31" cy="31" r="31" fill="white"/>
<path d="M46.7439 34.8706C45.9716 35.1318 45.1994 35.4453 44.4271 35.7065C43.9637 35.8632 42.0587 36.6468 40.2567 37.4305C39.7933 37.6394 39.3299 37.8484 38.918 38.0051C38.9695 38.1618 39.021 38.2663 39.021 38.423C39.1754 39.2589 38.918 40.147 38.4032 40.8784C38.3002 40.9829 38.4546 41.1918 38.6091 41.1396C38.7636 41.0873 38.918 40.9829 39.0725 40.8784C40.6686 39.9903 45.8172 37.6394 46.641 37.2737C47.0529 37.0648 47.5677 36.908 48.0311 36.7513C48.2885 36.6468 48.546 36.5424 48.7519 36.4901C48.8549 36.4379 48.9579 36.3856 49.0608 36.3856C49.1638 36.3856 49.3183 36.3334 49.3697 36.2289C49.5242 36.0199 49.3183 35.8632 49.2153 35.7065C48.6489 34.8706 47.6707 34.505 46.7439 34.8706Z" fill="#41A5B1"/>
<path d="M53.5916 38.1619C53.4886 38.0052 53.4372 37.8485 53.3342 37.744C52.7163 36.9081 51.6866 36.5424 50.6569 36.9604C49.8846 37.2738 49.0608 37.5872 48.2885 37.9529C47.4133 38.3186 42.0072 40.8262 40.3081 41.7143C39.0725 42.3412 37.4249 43.0203 35.8803 43.3338C34.6961 43.386 33.5119 43.386 32.3278 43.4383H32.2763C31.2465 43.3338 30.2168 43.2293 29.2386 43.0203C28.9811 42.9681 28.7237 42.9158 28.4663 42.8636C28.3118 42.8114 28.2089 42.7069 28.2089 42.5502C28.2089 42.3934 28.2603 42.289 28.4148 42.1845C28.7237 42.0277 29.0326 41.9233 29.3416 41.8188C31.0406 42.08 32.7911 42.08 34.4902 41.8188C34.8506 41.7665 35.211 41.7143 35.5714 41.5576C36.2922 41.2964 37.013 40.9307 37.5279 40.1993C38.1972 39.3112 38.0942 38.1619 37.3219 37.4828C37.219 37.3783 37.1675 37.3783 37.0645 37.2738C37.013 37.2216 36.9615 37.2216 36.91 37.1693V35.6543C37.5279 35.7588 38.2487 35.9155 38.9695 35.9155C40.3081 35.9155 41.7498 35.6543 43.0884 35.0797C45.8687 33.9826 48.1856 31.9974 49.0093 29.6988C49.2668 29.0719 49.0093 28.4973 48.3915 28.2361C46.332 27.139 43.2943 27.0345 40.5141 28.1316C39.0725 28.7585 37.8368 29.4899 36.7556 30.4825V27.2957C41.4923 26.6689 45.1993 22.4896 45.1993 17.5789C45.1993 12.1981 40.8745 7.75757 35.5199 7.75757C30.1653 7.75757 25.892 12.1981 25.892 17.5789C25.892 19.4073 26.3553 21.1313 27.3336 22.7508C25.5316 22.7508 23.8325 23.1165 22.4939 23.9523C22.0305 24.2135 21.876 24.7882 22.0305 25.3106C22.7513 27.8704 25.0682 30.2213 28.0544 31.4228C29.393 31.893 30.7317 32.1542 32.0703 32.1542C32.8941 32.1542 33.6664 32.0497 34.4902 31.7885V36.5424C33.6149 36.4902 32.7397 36.4379 31.8129 36.3857C30.5257 36.2812 29.2901 36.02 28.2089 35.2886C27.797 35.1319 27.4366 35.0274 27.0247 34.8707C26.9217 34.923 26.8702 34.923 26.8187 34.923C26.6128 34.8185 26.4068 34.7662 26.1494 34.6617C22.6483 33.4602 18.9928 33.8781 15.3373 33.9304C15.3373 33.6692 15.3373 33.408 15.2858 33.1468C15.2343 32.3109 14.8739 31.9452 14.0501 31.9974C11.9392 32.0497 9.77674 32.1019 7.6658 32.1542C7.56283 32.1542 7.40837 32.2064 7.15094 32.2064C7.25391 33.3557 7.35689 34.505 7.51134 35.6021C7.61432 36.2812 7.71729 36.9604 7.87175 37.6395C8.59256 41.0352 9.9312 44.2219 11.7847 47.1996C11.8877 47.3563 12.1451 47.5131 12.3511 47.5131C12.7115 47.5131 13.0719 47.5131 13.4323 47.5131C13.7927 47.5131 14.1531 47.4608 14.5135 47.4608C15.0798 47.4086 15.4402 47.1996 15.5947 46.7294C15.6462 46.625 15.6977 46.416 15.6977 46.2593C15.6977 46.0503 15.6977 45.8413 15.6977 45.6324C17.3452 46.1026 18.9928 46.625 20.6404 47.0951C23.6266 48.0877 26.7157 49.0281 29.8049 49.8117C31.0406 50.1251 32.3278 50.3341 33.5119 50.2296C34.8506 50.1774 36.1377 49.8639 37.3734 49.1325C37.4249 49.0803 37.4764 49.0281 37.5279 49.0281C38.3517 48.7146 39.124 48.4012 39.8962 48.0877C43.8607 46.4682 47.5162 44.1696 51.1203 41.9233C51.6866 41.6098 52.2015 41.2441 52.7163 40.9307C52.9223 40.8262 53.0768 40.6695 53.2312 40.4605C53.3857 40.2515 53.5401 39.9903 53.6431 39.7291C54.0035 39.259 53.9005 38.6321 53.5916 38.1619ZM41.4923 30.4825C43.1914 29.8556 44.8904 29.6466 46.2291 30.0123C45.4053 31.2138 43.9122 32.2064 42.2131 32.9378C40.5141 33.5647 38.815 33.7736 37.4764 33.408C38.3517 32.2064 39.7933 31.0571 41.4923 30.4825ZM35.6744 10.2129C39.6903 10.2129 42.9339 13.5041 42.9339 17.5789C42.9339 21.6537 39.6903 24.9449 35.6744 24.9449C31.6584 24.9449 28.4148 21.6537 28.4148 17.5789C28.4148 13.5041 31.6584 10.2129 35.6744 10.2129ZM29.0326 29.1242C27.2306 28.3928 25.6345 27.0345 24.8108 25.5718C26.4068 24.9449 28.3118 24.9449 30.1138 25.6763C31.298 26.5121 32.7911 27.139 34.4902 27.4002V29.3854C32.9971 29.96 31.0921 29.8556 29.0326 29.1242Z" fill="url(#paint0_linear)"/>
<path d="M36.2923 20.0341H33.2546C32.5338 20.0341 32.0704 20.5043 32.0704 21.2356C32.0704 21.967 32.5338 22.4372 33.2546 22.4372H34.4388C34.4388 23.1686 34.9022 23.6387 35.623 23.6387C36.3438 23.6387 36.8072 23.1686 36.8072 22.4372V22.3849C38.1458 22.1237 39.227 20.9222 39.227 19.4594C39.227 17.7355 37.8884 16.3772 36.1893 16.3772H35.0051C34.6447 16.3772 34.3873 16.116 34.3873 15.7503C34.3873 15.3846 34.6447 15.1234 35.0051 15.1234H38.0428C38.7636 15.1234 39.227 14.6533 39.227 13.9219C39.227 13.1905 38.7636 12.7203 38.0428 12.7203H36.8586C36.8586 11.9367 36.3953 11.4143 35.6745 11.4143C34.9536 11.4143 34.4388 11.9367 34.4388 12.6681V12.7726C33.1001 13.0338 32.0189 14.2353 32.0189 15.6981C32.0189 17.422 33.3576 18.7803 35.0566 18.7803H36.2408C36.6012 18.7803 36.8586 19.0415 36.8586 19.4072C36.8586 19.7729 36.6527 20.0341 36.2923 20.0341Z" fill="url(#paint1_linear)"/>
<defs>
<linearGradient id="paint0_linear" x1="4.00006" y1="24.5003" x2="79.1142" y2="54.2378" gradientUnits="userSpaceOnUse">
<stop stop-color="#33E284"/>
<stop offset="1" stop-color="#5258E8"/>
</linearGradient>
<linearGradient id="paint1_linear" x1="32.1278" y1="17.6617" x2="53.035" y2="25.2771" gradientUnits="userSpaceOnUse">
<stop stop-color="#33E284"/>
<stop offset="1" stop-color="#5258E8"/>
</linearGradient>
</defs>
</svg>
