<svg width="52" height="52" viewBox="0 0 52 52" fill="none" xmlns="http://www.w3.org/2000/svg">
<circle cx="26" cy="26" r="26" fill="url(#paint0_linear)"/>
<g clip-path="url(#clip0)">
<path d="M22.3516 21.6931H16.7742V19.653H21.8903C21.8484 19.245 21.8064 18.837 21.8064 18.4289C21.8064 17.8577 21.8484 17.3273 21.9322 16.7969H16.7742V14.7568H22.4774C23.1903 12.8799 24.4903 11.2478 26.1258 10.0645H15.3484C12.8742 10.0645 10.9032 11.9822 10.9032 14.3895V40.2581H32.2903C34.5967 40.2581 36.4838 38.422 36.4838 36.1779V28.099C35.2677 28.5887 33.9258 28.8335 32.5 28.8335C27.7613 28.8335 23.7774 25.8549 22.3516 21.6931ZM16.7742 24.5493H21.3871V26.5894H16.7742V24.5493ZM19.9193 36.1779C18.2 36.1779 16.7742 34.7906 16.7742 33.1177C16.7742 31.4448 18.2 30.0575 19.9193 30.0575C21.6387 30.0575 23.0645 31.4448 23.0645 33.1177C23.0645 34.7906 21.6387 36.1779 19.9193 36.1779ZM27.0484 36.1779H24.9516V33.7297H27.0484V36.1779ZM30.8226 36.1779H28.7258V30.4656H30.8226V36.1779Z" fill="white"/>
<path d="M39.7546 22.8764C40.5933 21.5707 41.0965 20.061 41.0965 18.4289C41.0965 13.8183 37.2384 10.0645 32.4997 10.0645C27.761 10.0645 23.903 13.8183 23.903 18.4289C23.903 23.0396 27.761 26.7934 32.4997 26.7934C34.3449 26.7934 36.0642 26.2221 37.4481 25.2429L41.6417 29.3231C42.2288 29.8943 43.1933 29.8943 43.8223 29.3231L44.032 29.1191C44.3255 28.8335 44.4933 28.4663 44.4933 28.0582C44.4933 27.6502 44.3255 27.283 44.032 26.9974L39.7546 22.8764ZM32.4997 24.7533C28.9352 24.7533 25.9997 21.8971 25.9997 18.4289C25.9997 14.9608 28.9352 12.1046 32.4997 12.1046C36.0642 12.1046 38.9997 14.9608 38.9997 18.4289C38.9997 21.8971 36.0642 24.7533 32.4997 24.7533Z" fill="white"/>
<path d="M32.3742 16.5522C32.4581 16.5522 33.2548 16.5522 33.2548 16.8786H35.3516C35.3516 15.9401 34.7645 15.0017 33.5484 14.6753V13.5736H31.4516V14.6345C30.2774 14.9609 29.6484 15.9401 29.6484 16.8786C29.6484 18.6331 31.2839 19.0003 32.2064 19.2451C33.2968 19.4899 33.2968 19.6123 33.2968 19.7755C33.2968 19.8979 33.2968 20.1019 32.4161 20.1019C32.2484 20.1019 31.7452 20.0611 31.7452 19.7755H29.6484C29.6484 20.8772 30.3613 21.6932 31.4516 22.0196V23.1213H33.5484V22.0196C34.8484 21.6524 35.3516 20.714 35.3516 19.7755C35.3516 17.8986 33.6322 17.4906 32.6677 17.2458C32.3322 17.1642 31.829 17.0418 31.7452 16.9602C31.7452 16.9602 31.7452 16.9602 31.7452 16.8786C31.7452 16.593 32.1645 16.5522 32.3742 16.5522Z" fill="white"/>
</g>
<defs>
<linearGradient id="paint0_linear" x1="4.61291" y1="8.80645" x2="78.897" y2="69.5881" gradientUnits="userSpaceOnUse">
<stop stop-color="#33E284"/>
<stop offset="1" stop-color="#5258E8"/>
</linearGradient>
<clipPath id="clip0">
<rect width="33.5484" height="30.1935" fill="white" transform="translate(10.9032 10.0645)"/>
</clipPath>
</defs>
</svg>
