<svg width="62" height="62" viewBox="0 0 62 62" fill="none" xmlns="http://www.w3.org/2000/svg">
<circle cx="31" cy="31" r="31" fill="white"/>
<g clip-path="url(#clip0)">
<path d="M32.324 55.0002H28.7818C27.4601 55.0002 26.4027 53.9453 26.4027 52.6265V49.567C26.4027 49.3033 26.1384 48.9868 25.9269 48.934L25.8211 48.8813L21.3802 47.035C21.3802 47.035 21.2745 47.035 21.1687 47.035C20.9573 47.035 20.7458 47.1405 20.64 47.1933L18.4724 49.356C17.9966 49.778 17.4151 50.0418 16.7807 50.0418C16.1462 50.0418 15.5647 49.778 15.1417 49.356L12.6569 46.8768C11.7582 45.98 11.7582 44.4503 12.6569 43.5536L14.8245 41.3908C14.9831 41.2326 15.036 40.8106 14.9303 40.5996L14.8774 40.4941L13.0799 36.1158C13.027 35.9048 12.6569 35.6411 12.4454 35.6411H9.37908C8.05737 35.6411 7 34.5861 7 33.2674V29.7331C7 28.4144 8.05737 27.3594 9.37908 27.3594H12.4454C12.7098 27.3594 13.027 27.0956 13.0799 26.8846L13.1327 26.7791L14.9303 22.4009C15.036 22.1899 14.9831 21.7679 14.8245 21.6097L12.6569 19.4469C11.7582 18.5502 11.7582 17.0732 12.6569 16.1237L15.1417 13.6445C15.5647 13.2225 16.1462 12.9587 16.7807 12.9587C17.4151 12.9587 17.9966 13.2225 18.4196 13.6445L20.5872 15.8072C20.6929 15.9127 20.8515 15.9655 21.1159 15.9655C21.2216 15.9655 21.3273 15.9655 21.3802 15.9127L21.4859 15.86L25.874 14.0665C26.0855 14.0137 26.3498 13.6445 26.3498 13.4335V10.374C26.3498 9.05524 27.4072 8.00024 28.7289 8.00024H32.2711C33.5928 8.00024 34.6502 9.05524 34.6502 10.374V13.4335C34.6502 13.6972 34.9145 14.0137 35.126 14.0665L35.2317 14.1192L39.6198 15.9655C39.6727 16.0182 39.7784 16.0182 39.8841 16.0182C40.0956 16.0182 40.3071 15.9127 40.4128 15.86L42.5804 13.6972C43.0034 13.2752 43.6378 13.0115 44.2193 13.0115C44.8009 13.0115 45.4353 13.2752 45.8583 13.6972L48.3431 16.1765C49.2418 17.0732 49.2418 18.6029 48.3431 19.4997L46.1755 21.6624C46.0169 21.8207 45.964 22.2427 46.0697 22.4537L46.1226 22.5592L47.9201 26.9374C47.973 27.1484 48.3431 27.4121 48.5546 27.4121H51.6209C52.9426 27.4121 54 28.4671 54 29.7859V33.3201C54 34.6389 52.9426 35.6938 51.6209 35.6938H48.5546C48.2902 35.6938 47.973 35.9576 47.9201 36.1686L47.8673 36.2741L46.0697 40.6523C45.964 40.8633 46.0169 41.2853 46.1755 41.4436L48.3431 43.6063C49.2418 44.5031 49.2418 46.0328 48.3431 46.9295L45.8583 49.4088C45.4353 49.8308 44.8009 50.0945 44.2193 50.0945C43.5849 50.0945 43.0034 49.8308 42.5804 49.4088L40.4128 47.246C40.3071 47.1405 40.1485 47.0878 39.8841 47.0878C39.7784 47.0878 39.6727 47.0878 39.6198 47.1405L39.5141 47.1933L35.126 48.9868C34.9145 49.0395 34.6502 49.4088 34.6502 49.6198V52.6793C34.6502 53.9453 33.5928 55.0002 32.324 55.0002ZM26.6142 46.9295C27.7244 47.2988 28.5703 48.4593 28.5703 49.567V52.6265C28.5703 52.732 28.676 52.8903 28.8346 52.8903H32.3768C32.4826 52.8903 32.6412 52.7848 32.6412 52.6265V49.567C32.6412 48.4065 33.4871 47.246 34.5973 46.9295L38.8268 45.1888C39.1968 44.9778 39.6198 44.925 40.0427 44.925C40.8358 44.925 41.5759 45.2416 42.0517 45.7163L44.2193 47.879C44.2722 47.9318 44.3251 47.9318 44.3779 47.9318C44.4308 47.9318 44.4837 47.9318 44.5366 47.879L47.0214 45.3998C47.1271 45.2943 47.1271 45.1361 47.0214 45.0833L44.8538 42.9206C44.0607 42.1293 43.8493 40.7051 44.3779 39.7028L46.1226 35.4828C46.4927 34.3751 47.6029 33.5311 48.766 33.5311H51.8324C51.9381 33.5311 52.0967 33.4256 52.0967 33.2674V29.7331C52.0967 29.6276 51.991 29.4694 51.8324 29.4694H48.766C47.6029 29.4694 46.4927 28.6254 46.1226 27.5176L44.3779 23.2977C43.8493 22.2427 44.0607 20.8712 44.9066 20.0799L47.0742 17.9172C47.18 17.8117 47.18 17.6534 47.0742 17.6007L44.5894 15.1215C44.5366 15.0687 44.4837 15.0687 44.4308 15.0687C44.378 15.0687 44.3251 15.0687 44.2722 15.1215L42.1046 17.2842C41.5759 17.8117 40.8886 18.0754 40.0956 18.0754C39.6727 18.0754 39.1968 17.9699 38.8268 17.7589L34.5973 16.0182C33.4871 15.649 32.6412 14.5412 32.6412 13.3807V10.374C32.6412 10.2157 32.5354 10.1102 32.3768 10.1102H28.8346C28.7289 10.1102 28.5703 10.2157 28.5703 10.374V13.4335C28.5703 14.594 27.7244 15.7545 26.6142 16.071L22.3847 17.8117C22.0146 18.0227 21.5917 18.1282 21.1687 18.1282C20.3757 18.1282 19.6884 17.8644 19.1597 17.3369L16.9921 15.1742C16.8864 15.0687 16.7807 15.0687 16.6749 15.1742L14.1901 17.6534C14.0844 17.7589 14.0844 17.9172 14.1901 17.9699L16.3577 20.1327C17.2036 20.9767 17.4151 22.3482 16.8864 23.3504L15.1417 27.5704C14.7717 28.6781 13.6614 29.5221 12.4983 29.5221H9.37908C9.22047 29.5221 9.11474 29.6276 9.11474 29.7331V33.2674C9.11474 33.3729 9.22047 33.5311 9.37908 33.5311H12.4454C13.6085 33.5311 14.7188 34.3751 15.0889 35.4828L16.8335 39.7028C17.3622 40.7578 17.1507 42.1293 16.3048 42.9206L14.1372 45.0833C14.0315 45.1888 14.0315 45.347 14.1372 45.3998L16.622 47.879C16.6749 47.9318 16.7278 47.9318 16.7807 47.9318C16.8335 47.9318 16.8864 47.9318 16.9393 47.879L19.1069 45.7163C19.6355 45.1888 20.3228 44.925 21.1159 44.925C21.5388 44.925 21.9618 45.0305 22.3318 45.1888L26.6142 46.9295Z" fill="url(#paint0_linear)"/>
<path d="M20.7043 40.7391C23.1567 43.3409 26.6525 44.954 30.5136 44.954C34.3746 44.954 37.8705 43.3409 40.3228 40.7391H20.7043Z" fill="url(#paint1_linear)"/>
<path d="M20.7567 39.1783V37.4091C20.7567 37.0969 20.9654 36.8888 21.2784 36.8888H22.8437C23.1568 36.8888 23.3655 37.0969 23.3655 37.4091V39.1783H24.6177V35.5359C24.6177 35.2237 24.8264 35.0155 25.1395 35.0155H26.7048C27.0179 35.0155 27.2266 35.2237 27.2266 35.5359V39.1783H28.8441V33.0382C28.8441 32.726 29.0528 32.5179 29.3658 32.5179H30.9311C31.2442 32.5179 31.4529 32.726 31.4529 33.0382V39.2304H33.0704V30.5926C33.0704 30.2804 33.2791 30.0722 33.5921 30.0722H35.1574C35.4705 30.0722 35.6792 30.2804 35.6792 30.5926V39.1783H37.2967V27.9388C37.2967 27.6266 37.5054 27.4184 37.8184 27.4184H39.3837C39.6968 27.4184 39.9055 27.6266 39.9055 27.9388V39.1783H41.4708C42.9839 36.9929 43.8709 34.3391 43.8709 31.4772C43.8709 24.0362 37.8184 18.0001 30.3572 18.0001C22.8959 18.0001 16.9999 24.0882 16.9999 31.5292C16.9999 34.3911 17.8869 37.0449 19.4001 39.2304H20.7567V39.1783ZM36.3575 23.4638L35.627 22.5792L38.7054 22.6312L38.1315 25.6492L37.4532 24.8167C31.1398 30.1242 19.5566 30.5405 19.087 30.5926C19.1914 30.5926 30.4615 28.5112 36.3575 23.4638Z" fill="url(#paint2_linear)"/>
</g>
<defs>
<linearGradient id="paint0_linear" x1="3.5" y1="25.5002" x2="84.919" y2="57.7309" gradientUnits="userSpaceOnUse">
<stop stop-color="#33E284"/>
<stop offset="1" stop-color="#5258E8"/>
</linearGradient>
<linearGradient id="paint1_linear" x1="21.0007" y1="42.8932" x2="47.5324" y2="46.244" gradientUnits="userSpaceOnUse">
<stop stop-color="#33E284"/>
<stop offset="1" stop-color="#5258E8"/>
</linearGradient>
<linearGradient id="paint2_linear" x1="13.9999" y1="26.0001" x2="66.9368" y2="48.8073" gradientUnits="userSpaceOnUse">
<stop stop-color="#33E284"/>
<stop offset="1" stop-color="#5258E8"/>
</linearGradient>
<clipPath id="clip0">
<rect width="47" height="47" fill="white" transform="translate(7 8.00024)"/>
</clipPath>
</defs>
</svg>
