<svg width="52" height="52" viewBox="0 0 52 52" fill="none" xmlns="http://www.w3.org/2000/svg">
<circle cx="26" cy="26" r="26" fill="url(#paint0_linear)"/>
<g clip-path="url(#clip0)">
<path d="M26.8311 8.37535V7.5484H25.0915V8.37535C17.2984 8.85774 11.1752 15.2666 11.1752 22.9848V23.1226H12.9147V22.9848C12.9147 20.9174 14.5847 19.2635 16.6721 19.2635C18.7596 19.2635 20.4296 20.9174 20.4296 22.9848V23.1226H22.1691V22.9848C22.1691 21.262 23.352 19.7459 25.0915 19.3324V27.3263H26.8311V19.4013C28.501 19.8148 29.7535 21.262 29.7535 23.0537V23.1915H31.4931V23.0537C31.4931 20.9863 33.163 19.3324 35.2505 19.3324C37.3379 19.3324 39.0079 20.9863 39.0079 23.0537V23.1915H40.7475V23.0537C40.7475 15.2666 34.6938 8.85774 26.8311 8.37535ZM38.1729 18.3677C36.99 17.6096 35.5984 17.4029 34.2068 17.6785C32.7455 17.9542 31.4235 18.85 30.6581 20.0905C29.6144 18.5055 27.9444 17.6096 25.9961 17.6096C24.1174 17.6096 22.3778 18.5744 21.3341 20.0905C20.4991 18.85 19.2467 17.9542 17.7854 17.6785C16.3938 17.4029 15.0022 17.6785 13.8193 18.3677C15.7676 13.406 20.5687 10.0982 25.9961 10.0982C31.4235 10.0982 36.2246 13.406 38.1729 18.3677Z" fill="white"/>
<path d="M25.9267 43.5896C31.2149 43.5896 35.4594 39.3859 35.4594 34.1486C35.4594 28.9112 31.1453 24.7076 25.9267 24.7076C20.7081 24.7076 16.4636 28.9802 16.4636 34.1486C16.4636 39.317 20.7081 43.5896 25.9267 43.5896ZM25.8571 34.6999C25.0917 34.4932 23.7001 34.1486 23.7001 32.7014C23.7001 31.8745 24.1871 31.0475 25.2309 30.7719V29.876H26.9704V30.8408C28.0141 31.1164 28.5012 31.9434 28.5012 32.7703H26.7617C26.7617 32.4947 26.1354 32.4947 25.9963 32.4947C25.7875 32.4947 25.4396 32.5636 25.4396 32.7703C25.4396 32.8393 25.4396 32.8393 25.4396 32.8393C25.5092 32.9082 25.9963 33.046 26.205 33.1149C26.9704 33.3216 28.4316 33.6662 28.4316 35.2512C28.4316 36.0092 28.0141 36.8362 26.9008 37.1807V38.1455H25.1613V37.2496C24.2567 36.974 23.6305 36.2849 23.6305 35.3201H25.37C25.37 35.5958 25.7875 35.5958 25.9267 35.5958C26.6921 35.5958 26.6921 35.389 26.6921 35.3201C26.7617 35.0445 26.7617 34.9066 25.8571 34.6999Z" fill="white"/>
</g>
<defs>
<linearGradient id="paint0_linear" x1="-21.3871" y1="-16.3548" x2="43.2065" y2="45.7793" gradientUnits="userSpaceOnUse">
<stop stop-color="#33E284"/>
<stop offset="1" stop-color="#5258E8"/>
</linearGradient>
<clipPath id="clip0">
<rect width="29.5723" height="36.0412" fill="white" transform="translate(11.1752 7.5484)"/>
</clipPath>
</defs>
</svg>
