<svg width="158" height="43" viewBox="0 0 158 43" fill="none" xmlns="http://www.w3.org/2000/svg">
<path d="M29.0057 17.8747C28.8961 17.8747 20.5685 17.8747 20.6781 17.8747L11.5835 38.2332C10.4878 40.3241 11.6931 42.0298 14.3228 42.2499C15.3638 42.3049 19.8563 42.2499 22.6504 42.2499L31.745 21.9464C32.9503 19.7454 31.6902 18.0397 29.0057 17.8747Z" fill="url(#paint0_linear)"/>
<path d="M60.1849 3.73682C54.9802 12.0453 48.0223 14.3012 43.3106 14.9615L32.7368 38.3463C31.5863 40.4922 33.1751 42.1429 35.9144 42.308C37.0102 42.253 43.8037 42.253 43.8037 42.253L63.6913 1.75599C62.212 1.70096 61.2259 1.97608 60.1849 3.73682Z" fill="url(#paint1_linear)"/>
<path d="M14.8757 24.8028C13.9991 22.5469 11.2598 20.7861 8.79435 20.7861C8.68478 20.7861 0.850284 20.8412 0.905071 20.8412L8.73956 38.2835C9.61615 40.5394 12.3555 42.3001 14.8209 42.3001C17.0124 42.3001 13.7252 42.3001 22.7102 42.2451L14.8757 24.8028Z" fill="url(#paint2_linear)"/>
<path d="M34.7097 21.8372C33.8331 19.5813 31.0937 17.8205 28.6283 17.8205C28.5188 17.8205 20.6843 17.8755 20.7391 17.8755L29.8336 38.2891C30.7102 40.545 33.4496 42.3058 35.915 42.3058C36.7368 42.3058 43.8042 42.2508 43.8042 42.2508L34.7097 21.8372Z" fill="url(#paint3_linear)"/>
<path d="M80.4008 35.4217L77.1136 27.2783H74.4838L71.1966 35.4217L67.9642 27.3333L67.9094 27.2783H63.7456L70.2652 42.1345L70.32 42.2445H72.0184L75.7987 33.5509L79.579 42.1345L79.6337 42.2445H81.3869L87.797 27.4433L87.8517 27.2783H83.688L80.4008 35.4217Z" fill="#47394E"/>
<path d="M102.153 27.9386C100.948 27.2783 99.5236 27.0032 98.0444 27.0032C96.5652 27.0032 95.1955 27.3333 93.9902 27.9386C92.7849 28.5438 91.7987 29.4792 91.1413 30.5797C90.4838 31.7352 90.1003 33.0557 90.1003 34.4863C90.1003 35.9719 90.4291 37.3475 91.0865 38.448C91.7439 39.6035 92.6753 40.4838 93.9354 41.1441C95.1955 41.8044 96.5652 42.1345 98.0992 42.1345C99.6332 42.1345 101.003 41.8044 102.263 41.1441C103.523 40.4838 104.509 39.6035 105.112 38.448C105.769 37.2925 106.098 35.9719 106.098 34.4863C106.098 33.0557 105.769 31.7352 105.057 30.5797C104.345 29.4792 103.359 28.5988 102.153 27.9386ZM97.9896 30.0294C99.1949 30.0294 100.126 30.4146 100.784 31.1849C101.496 31.9553 101.825 33.0557 101.825 34.4863C101.825 35.9719 101.496 37.1274 100.784 37.9528C100.126 38.7231 99.1401 39.1633 97.9896 39.1633C96.8391 39.1633 95.9077 38.7231 95.2503 37.8977C94.5928 37.0724 94.2093 35.9169 94.2093 34.5413C94.2093 33.1658 94.5381 32.0653 95.2503 31.24C95.9625 30.4696 96.8939 30.0294 97.9896 30.0294Z" fill="#47394E"/>
<path d="M114.094 20.1283H110.094V41.9174H114.094V20.1283Z" fill="#47394E"/>
<path d="M125.981 39.0042C125.323 39.0042 124.83 38.8391 124.447 38.4539C124.063 38.0688 123.899 37.5736 123.899 36.9683V30.3656H128.83V27.2843H123.899V23.4326H123.406L117.653 29.5402L117.598 29.5952V30.3656H119.845V37.1334C119.845 38.674 120.338 39.8845 121.214 40.8199C122.146 41.7003 123.461 42.1955 125.104 42.1955C126.309 42.1955 127.624 41.8654 128.994 41.2601L129.049 41.2051V37.9037L128.884 38.0138C127.844 38.674 126.857 39.0042 125.981 39.0042Z" fill="#47394E"/>
<path d="M134.97 20.6322C134.367 20.6322 133.874 20.8523 133.381 21.2924C132.943 21.7326 132.723 22.2829 132.723 22.8881C132.723 23.4934 132.943 23.9886 133.381 24.4838C133.819 24.924 134.367 25.1991 134.97 25.1991C135.572 25.1991 136.12 24.979 136.558 24.4838C136.997 24.0436 137.216 23.4934 137.216 22.8881C137.216 22.2829 136.997 21.7326 136.558 21.2924C136.065 20.8523 135.572 20.6322 134.97 20.6322Z" fill="#47394E"/>
<path d="M136.94 27.2783H132.941V41.9144H136.94V27.2783Z" fill="#47394E"/>
<path d="M150.854 34.4863L156.716 27.2783H151.84L148.444 31.7351L144.992 27.3333L144.937 27.2783H140.116L146.143 34.4863L140.116 41.9144H144.828L148.498 37.2374L152.279 41.9144H157.1L150.854 34.4863Z" fill="#47394E"/>
<defs>
<linearGradient id="paint0_linear" x1="26.3884" y1="18.6151" x2="16.3763" y2="42.8986" gradientUnits="userSpaceOnUse">
<stop stop-color="#5F2BFF"/>
<stop offset="1" stop-color="#2330FA"/>
</linearGradient>
<linearGradient id="paint1_linear" x1="57.2028" y1="1.30771" x2="36.8036" y2="41.8032" gradientUnits="userSpaceOnUse">
<stop stop-color="#8259FF"/>
<stop offset="1" stop-color="#2330FA"/>
</linearGradient>
<linearGradient id="paint2_linear" x1="7.85925" y1="21.9738" x2="15.9678" y2="41.5813" gradientUnits="userSpaceOnUse">
<stop offset="0.15" stop-color="#33E284"/>
<stop offset="1" stop-color="#5258E8"/>
</linearGradient>
<linearGradient id="paint3_linear" x1="27.7877" y1="19.1427" x2="36.9497" y2="41.2977" gradientUnits="userSpaceOnUse">
<stop offset="0.15" stop-color="#33E284"/>
<stop offset="1" stop-color="#5258E8"/>
</linearGradient>
</defs>
</svg>
