<svg width="145" height="135" viewBox="0 0 145 135" fill="none" xmlns="http://www.w3.org/2000/svg">
<g clip-path="url(#clip0)">
<path d="M24.9171 124.002L19.9992 111.991H16.065L11.1471 124.002L6.31124 112.153L6.22927 111.991H0L9.75373 133.902V133.983H12.3766L18.0321 121.242L23.6057 133.902L23.6876 133.983H26.3105L35.9003 112.234L35.9823 111.991H29.753L24.9171 124.002Z" fill="#1C1A1C"/>
<path d="M57.2917 113.049C55.4885 112.157 53.3575 111.67 51.1444 111.67C48.9314 111.67 46.8823 112.157 45.0791 113.049C43.2759 113.942 41.8005 115.321 40.817 116.945C39.8334 118.649 39.2596 120.596 39.2596 122.706C39.2596 124.897 39.7514 126.926 40.735 128.549C41.7186 130.254 43.112 131.552 44.9971 132.526C46.8823 133.5 48.9314 133.987 51.2264 133.987C53.4394 133.987 55.5705 133.5 57.4557 132.526C59.3409 131.552 60.8162 130.254 61.7178 128.549C62.7014 126.845 63.1932 124.897 63.1932 122.706C63.1932 120.596 62.7014 118.649 61.7178 116.945C60.5703 115.24 59.1769 113.942 57.2917 113.049ZM51.1444 116.052C52.8657 116.052 54.341 116.62 55.3246 117.756C56.3901 118.892 56.8819 120.515 56.8819 122.625C56.8819 124.816 56.3901 126.521 55.3246 127.738C54.341 128.874 52.8657 129.523 51.1444 129.523C49.4232 129.523 48.1118 128.874 47.0462 127.657C46.0627 126.439 45.4889 124.735 45.4889 122.706C45.4889 120.678 45.9807 119.054 47.0462 117.918C48.1118 116.701 49.4232 116.052 51.1444 116.052Z" fill="#1C1A1C"/>
<path d="M75.1599 101.523H69.1766V133.579H75.1599V101.523Z" fill="#1C1A1C"/>
<path d="M92.8668 129.196C91.8832 129.196 91.1456 128.952 90.5718 128.384C89.9981 127.816 89.7522 127.086 89.7522 126.193V116.536H97.1289V111.992H89.7522V106.392H89.0145L80.4902 115.4L80.4083 115.481V116.617H83.7688V126.599C83.7688 128.871 84.5065 130.657 85.8179 132.036C87.2113 133.335 89.1784 134.065 91.5554 134.065C93.3586 134.065 95.3257 133.578 97.3748 132.685L97.4568 132.604V127.735L97.2109 127.897C95.6536 128.79 94.1782 129.196 92.8668 129.196Z" fill="#1C1A1C"/>
<path d="M106.227 102.176C105.326 102.176 104.588 102.5 103.85 103.15C103.194 103.799 102.867 104.61 102.867 105.503C102.867 106.396 103.194 107.126 103.85 107.857C104.506 108.506 105.326 108.911 106.227 108.911C107.129 108.911 107.948 108.587 108.604 107.857C109.26 107.207 109.588 106.396 109.588 105.503C109.588 104.61 109.26 103.799 108.604 103.15C107.948 102.5 107.129 102.176 106.227 102.176Z" fill="#1C1A1C"/>
<path d="M109.259 111.991H103.276V133.578H109.259V111.991Z" fill="#1C1A1C"/>
<path d="M129.916 122.622L138.686 111.991H131.473L126.391 118.564L121.228 112.072L121.146 111.991H113.933L122.949 122.622L113.933 133.578H120.982L126.391 126.68L132.047 133.496L132.129 133.578H139.342L129.916 122.622Z" fill="#1C1A1C"/>
<path d="M24.9171 124.002L19.9992 111.991H16.065L11.1471 124.002L6.31124 112.153L6.22927 111.991H0L9.75373 133.902V133.983H12.3766L18.0321 121.242L23.6057 133.902L23.6876 133.983H26.3105L35.9003 112.234L35.9823 111.991H29.753L24.9171 124.002Z" fill="#47394E"/>
<path d="M57.2917 113.049C55.4885 112.157 53.3575 111.67 51.1444 111.67C48.9314 111.67 46.8823 112.157 45.0791 113.049C43.2759 113.942 41.8005 115.321 40.817 116.945C39.8334 118.649 39.2596 120.596 39.2596 122.706C39.2596 124.897 39.7514 126.926 40.735 128.549C41.7186 130.254 43.112 131.552 44.9971 132.526C46.8823 133.5 48.9314 133.987 51.2264 133.987C53.4394 133.987 55.5705 133.5 57.4557 132.526C59.3409 131.552 60.8162 130.254 61.7178 128.549C62.7014 126.845 63.1932 124.897 63.1932 122.706C63.1932 120.596 62.7014 118.649 61.7178 116.945C60.5703 115.24 59.1769 113.942 57.2917 113.049ZM51.1444 116.052C52.8657 116.052 54.341 116.62 55.3246 117.756C56.3901 118.892 56.8819 120.515 56.8819 122.625C56.8819 124.816 56.3901 126.521 55.3246 127.738C54.341 128.874 52.8657 129.523 51.1444 129.523C49.4232 129.523 48.1118 128.874 47.0462 127.657C46.0627 126.439 45.4889 124.735 45.4889 122.706C45.4889 120.678 45.9807 119.054 47.0462 117.918C48.1118 116.701 49.4232 116.052 51.1444 116.052Z" fill="#47394E"/>
<path d="M75.1599 101.523H69.1766V133.579H75.1599V101.523Z" fill="#47394E"/>
<path d="M92.8668 129.196C91.8832 129.196 91.1456 128.952 90.5718 128.384C89.9981 127.816 89.7522 127.086 89.7522 126.193V116.536H97.1289V111.992H89.7522V106.392H89.0145L80.4902 115.4L80.4083 115.481V116.617H83.7688V126.599C83.7688 128.871 84.5065 130.657 85.8179 132.036C87.2113 133.335 89.1784 134.065 91.5554 134.065C93.3586 134.065 95.3257 133.578 97.3748 132.685L97.4568 132.604V127.735L97.2109 127.897C95.6536 128.79 94.1782 129.196 92.8668 129.196Z" fill="#47394E"/>
<path d="M106.227 102.176C105.326 102.176 104.588 102.5 103.85 103.15C103.194 103.799 102.867 104.61 102.867 105.503C102.867 106.396 103.194 107.126 103.85 107.857C104.506 108.506 105.326 108.911 106.227 108.911C107.129 108.911 107.948 108.587 108.604 107.857C109.26 107.207 109.588 106.396 109.588 105.503C109.588 104.61 109.26 103.799 108.604 103.15C107.948 102.5 107.129 102.176 106.227 102.176Z" fill="#47394E"/>
<path d="M109.259 111.991H103.276V133.578H109.259V111.991Z" fill="#47394E"/>
<path d="M129.916 122.622L138.686 111.991H131.473L126.391 118.564L121.228 112.072L121.146 111.991H113.933L122.949 122.622L113.933 133.578H120.982L126.391 126.68L132.047 133.496L132.129 133.578H139.342L129.916 122.622Z" fill="#47394E"/>
<path d="M73.611 32.7853C73.4471 32.7853 56.3166 32.7853 56.4805 32.7853L37.7107 74.173C35.4977 78.3929 37.9566 81.9637 43.3663 82.2883C45.4973 82.4506 54.7593 82.2883 60.4968 82.2071L79.2665 40.9817C81.7255 36.5994 79.1026 33.0287 73.611 32.7853Z" fill="url(#paint0_linear)"/>
<path d="M137.787 4.06473C127.05 20.9444 112.788 25.5701 102.952 26.8686L81.2319 74.3427C78.855 78.725 82.2155 81.9711 87.7891 82.3768C90.0841 82.2957 104.018 82.2957 104.018 82.2957L145 0.00711353C142.049 -0.0740389 140 0.494028 137.787 4.06473Z" fill="url(#paint1_linear)"/>
<path d="M44.4295 46.8318C42.6263 42.2873 37.0527 38.6354 31.889 38.7166C31.6431 38.7166 15.4961 38.7978 15.6601 38.7978L31.807 74.1802C33.6102 78.7248 39.1838 82.3766 44.3475 82.2955C48.8555 82.2955 42.1345 82.3766 60.5764 82.2143L44.4295 46.8318Z" fill="url(#paint2_linear)"/>
<path d="M85.3297 40.824C83.5265 36.2794 77.953 32.6276 72.7892 32.7087C72.6253 32.7087 56.3964 32.7899 56.5603 32.7899L75.4121 74.2588C77.2153 78.8033 82.7888 82.4552 87.9526 82.374C89.6738 82.374 104.181 82.2929 104.181 82.2929L85.3297 40.824Z" fill="url(#paint3_linear)"/>
</g>
<defs>
<linearGradient id="paint0_linear" x1="68.2075" y1="34.2684" x2="48.079" y2="83.7899" gradientUnits="userSpaceOnUse">
<stop stop-color="#5F2BFF"/>
<stop offset="1" stop-color="#2330FA"/>
</linearGradient>
<linearGradient id="paint1_linear" x1="133.679" y1="-4.83509" x2="92.6015" y2="77.8803" gradientUnits="userSpaceOnUse">
<stop stop-color="#8259FF"/>
<stop offset="1" stop-color="#2330FA"/>
</linearGradient>
<linearGradient id="paint2_linear" x1="28.1816" y1="36.6803" x2="47.8029" y2="84.8084" gradientUnits="userSpaceOnUse">
<stop offset="0.2" stop-color="#33E284"/>
<stop offset="1" stop-color="#5258E8"/>
</linearGradient>
<linearGradient id="paint3_linear" x1="69.2457" y1="30.9437" x2="91.129" y2="84.6205" gradientUnits="userSpaceOnUse">
<stop offset="0.2" stop-color="#33E284"/>
<stop offset="1" stop-color="#5258E8"/>
</linearGradient>
<clipPath id="clip0">
<rect width="145" height="135" fill="white"/>
</clipPath>
</defs>
</svg>
