<svg width="167" height="167" viewBox="0 0 167 167" fill="none" xmlns="http://www.w3.org/2000/svg">
<circle cx="83.5" cy="83.5" r="83.5" fill="white"/>
<g clip-path="url(#clip0_12_371)">
<path d="M50.4843 121.481L47.1018 113.224H44.3958L41.0133 121.481L37.6871 113.335L37.6307 113.224H33.3462L40.0549 128.288V128.344H41.8589L45.7488 119.584L49.5823 128.288L49.6387 128.344H51.4427L58.0387 113.391L58.095 113.224H53.8105L50.4843 121.481Z" fill="#1C1A1C"/>
<path d="M72.7518 113.951C71.5116 113.338 70.0458 113.003 68.5237 113.003C67.0015 113.003 65.5922 113.338 64.3519 113.951C63.1116 114.565 62.0969 115.514 61.4204 116.629C60.7439 117.801 60.3492 119.14 60.3492 120.591C60.3492 122.097 60.6875 123.492 61.364 124.608C62.0405 125.779 62.9989 126.672 64.2955 127.342C65.5922 128.011 67.0015 128.346 68.5801 128.346C70.1022 128.346 71.568 128.011 72.8646 127.342C74.1612 126.672 75.176 125.779 75.7961 124.608C76.4726 123.436 76.8109 122.097 76.8109 120.591C76.8109 119.14 76.4726 117.801 75.7961 116.629C75.0069 115.458 74.0485 114.565 72.7518 113.951ZM68.5237 116.016C69.7076 116.016 70.7223 116.406 71.3988 117.187C72.1317 117.968 72.47 119.084 72.47 120.535C72.47 122.041 72.1317 123.213 71.3988 124.05C70.7223 124.831 69.7076 125.277 68.5237 125.277C67.3398 125.277 66.4378 124.831 65.7049 123.994C65.0284 123.157 64.6338 121.986 64.6338 120.591C64.6338 119.196 64.972 118.08 65.7049 117.299C66.4378 116.462 67.3398 116.016 68.5237 116.016Z" fill="#1C1A1C"/>
<path d="M85.0417 106.027H80.9263V128.065H85.0417V106.027Z" fill="#1C1A1C"/>
<path d="M97.2206 125.055C96.5441 125.055 96.0367 124.888 95.642 124.497C95.2474 124.107 95.0783 123.605 95.0783 122.991V116.351H100.152V113.227H95.0783V109.377H94.5709L88.7079 115.57L88.6515 115.626V116.407H90.9629V123.27C90.9629 124.832 91.4703 126.06 92.3723 127.008C93.3307 127.901 94.6837 128.403 96.3186 128.403C97.5588 128.403 98.9118 128.068 100.321 127.454L100.378 127.399V124.051L100.208 124.163C99.1373 124.776 98.1226 125.055 97.2206 125.055Z" fill="#1C1A1C"/>
<path d="M106.41 106.476C105.79 106.476 105.282 106.699 104.775 107.145C104.324 107.591 104.099 108.149 104.099 108.763C104.099 109.377 104.324 109.879 104.775 110.381C105.226 110.827 105.79 111.106 106.41 111.106C107.03 111.106 107.594 110.883 108.045 110.381C108.496 109.935 108.721 109.377 108.721 108.763C108.721 108.149 108.496 107.591 108.045 107.145C107.594 106.699 107.03 106.476 106.41 106.476Z" fill="#1C1A1C"/>
<path d="M108.495 113.224H104.38V128.065H108.495V113.224Z" fill="#1C1A1C"/>
<path d="M122.703 120.533L128.735 113.224H123.774L120.279 117.743L116.727 113.279L116.671 113.224H111.71L117.911 120.533L111.71 128.065H116.558L120.279 123.322L124.169 128.009L124.225 128.065H129.186L122.703 120.533Z" fill="#1C1A1C"/>
<path d="M50.4843 121.481L47.1018 113.224H44.3958L41.0133 121.481L37.6871 113.335L37.6307 113.224H33.3462L40.0549 128.288V128.344H41.8589L45.7488 119.584L49.5823 128.288L49.6387 128.344H51.4427L58.0387 113.391L58.095 113.224H53.8105L50.4843 121.481Z" fill="#1C1A1C"/>
<path d="M72.7518 113.951C71.5116 113.338 70.0458 113.003 68.5237 113.003C67.0015 113.003 65.5922 113.338 64.3519 113.951C63.1116 114.565 62.0969 115.514 61.4204 116.629C60.7439 117.801 60.3492 119.14 60.3492 120.591C60.3492 122.097 60.6875 123.492 61.364 124.608C62.0405 125.779 62.9989 126.672 64.2955 127.342C65.5922 128.011 67.0015 128.346 68.5801 128.346C70.1022 128.346 71.568 128.011 72.8646 127.342C74.1612 126.672 75.176 125.779 75.7961 124.608C76.4726 123.436 76.8109 122.097 76.8109 120.591C76.8109 119.14 76.4726 117.801 75.7961 116.629C75.0069 115.458 74.0485 114.565 72.7518 113.951ZM68.5237 116.016C69.7076 116.016 70.7223 116.406 71.3988 117.187C72.1317 117.968 72.47 119.084 72.47 120.535C72.47 122.041 72.1317 123.213 71.3988 124.05C70.7223 124.831 69.7076 125.277 68.5237 125.277C67.3398 125.277 66.4378 124.831 65.7049 123.994C65.0284 123.157 64.6338 121.986 64.6338 120.591C64.6338 119.196 64.972 118.08 65.7049 117.299C66.4378 116.462 67.3398 116.016 68.5237 116.016Z" fill="#1C1A1C"/>
<path d="M85.0417 106.027H80.9263V128.065H85.0417V106.027Z" fill="#1C1A1C"/>
<path d="M97.2206 125.055C96.5441 125.055 96.0367 124.888 95.642 124.497C95.2474 124.107 95.0783 123.605 95.0783 122.991V116.351H100.152V113.227H95.0783V109.377H94.5709L88.7079 115.57L88.6515 115.626V116.407H90.9629V123.27C90.9629 124.832 91.4703 126.06 92.3723 127.008C93.3307 127.901 94.6837 128.403 96.3186 128.403C97.5588 128.403 98.9118 128.068 100.321 127.454L100.378 127.399V124.051L100.208 124.163C99.1373 124.776 98.1226 125.055 97.2206 125.055Z" fill="#1C1A1C"/>
<path d="M106.41 106.476C105.79 106.476 105.282 106.699 104.775 107.145C104.324 107.591 104.099 108.149 104.099 108.763C104.099 109.377 104.324 109.879 104.775 110.381C105.226 110.827 105.79 111.106 106.41 111.106C107.03 111.106 107.594 110.883 108.045 110.381C108.496 109.935 108.721 109.377 108.721 108.763C108.721 108.149 108.496 107.591 108.045 107.145C107.594 106.699 107.03 106.476 106.41 106.476Z" fill="#1C1A1C"/>
<path d="M108.495 113.224H104.38V128.065H108.495V113.224Z" fill="#1C1A1C"/>
<path d="M122.703 120.533L128.735 113.224H123.774L120.279 117.743L116.727 113.279L116.671 113.224H111.71L117.911 120.533L111.71 128.065H116.558L120.279 123.322L124.169 128.009L124.225 128.065H129.186L122.703 120.533Z" fill="#1C1A1C"/>
<path d="M83.9764 58.7688C83.8636 58.7688 72.0812 58.7688 72.1939 58.7688L59.2839 87.2234C57.7618 90.1246 59.4531 92.5795 63.1738 92.8027C64.6396 92.9143 71.01 92.8027 74.9563 92.7469L87.8663 64.4039C89.5576 61.3911 87.7535 58.9362 83.9764 58.7688Z" fill="url(#paint0_linear_12_371)"/>
<path d="M128.117 39.0231C120.732 50.6281 110.923 53.8083 104.158 54.701L89.2182 87.34C87.5833 90.3529 89.8947 92.5846 93.7282 92.8636C95.3067 92.8078 104.891 92.8078 104.891 92.8078L133.078 36.2334C131.049 36.1776 129.639 36.5682 128.117 39.0231Z" fill="url(#paint1_linear_12_371)"/>
<path d="M63.9051 68.423C62.6648 65.2986 58.8313 62.7879 55.2797 62.8437C55.1105 62.8437 44.0046 62.8995 44.1173 62.8995L55.2233 87.2253C56.4635 90.3498 60.2971 92.8605 63.8487 92.8047C66.9494 92.8047 62.3266 92.8605 75.0111 92.7489L63.9051 68.423Z" fill="url(#paint2_linear_12_371)"/>
<path d="M92.0366 64.2953C90.7963 61.1709 86.9628 58.6602 83.4111 58.716C83.2984 58.716 72.136 58.7718 72.2488 58.7718L85.2151 87.2822C86.4554 90.4066 90.2889 92.9173 93.8406 92.8615C95.0245 92.8615 105.003 92.8057 105.003 92.8057L92.0366 64.2953Z" fill="url(#paint3_linear_12_371)"/>
</g>
<defs>
<linearGradient id="paint0_linear_12_371" x1="80.2598" y1="59.7885" x2="66.4254" y2="93.8392" gradientUnits="userSpaceOnUse">
<stop stop-color="#5F2BFF"/>
<stop offset="1" stop-color="#2330FA"/>
</linearGradient>
<linearGradient id="paint1_linear_12_371" x1="125.291" y1="32.9043" x2="97.0577" y2="89.7818" gradientUnits="userSpaceOnUse">
<stop stop-color="#8259FF"/>
<stop offset="1" stop-color="#2330FA"/>
</linearGradient>
<linearGradient id="paint2_linear_12_371" x1="52.7297" y1="61.4437" x2="66.2154" y2="94.5364" gradientUnits="userSpaceOnUse">
<stop offset="0.2" stop-color="#33E284"/>
<stop offset="1" stop-color="#5258E8"/>
</linearGradient>
<linearGradient id="paint3_linear_12_371" x1="80.9738" y1="57.5025" x2="96.0143" y2="94.4105" gradientUnits="userSpaceOnUse">
<stop offset="0.2" stop-color="#33E284"/>
<stop offset="1" stop-color="#5258E8"/>
</linearGradient>
<clipPath id="clip0_12_371">
<rect width="99.732" height="92.8141" fill="white" transform="translate(33.3462 36.2285)"/>
</clipPath>
</defs>
</svg>
