<svg xmlns="http://www.w3.org/2000/svg" width="64" height="64" viewBox="0 0 64 64" fill="none">
<rect width="64" height="64" rx="15" fill="#5258E8"/>
<path d="M21.3333 42.6669L42.6667 21.3336M28 24C28 26.2091 26.2091 28 24 28C21.7909 28 20 26.2091 20 24C20 21.7909 21.7909 20 24 20C26.2091 20 28 21.7909 28 24ZM44 40C44 42.2092 42.2092 44 40 44C37.7908 44 36 42.2092 36 40C36 37.7908 37.7908 36 40 36C42.2092 36 44 37.7908 44 40Z" stroke="white" stroke-width="3" stroke-linecap="round" stroke-linejoin="round"/>
</svg>