<svg xmlns="http://www.w3.org/2000/svg" width="64" height="64" viewBox="0 0 64 64" fill="none">
<rect width="64" height="64" rx="15" fill="#5258E8"/>
<path d="M43 28.6191V24.0476C43 22.3645 41.8061 21 40.3333 21H21.6667C20.1939 21 19 22.3645 19 24.0476V39.2857C19 40.9689 20.1939 42.3333 21.6667 42.3333H40.3333C41.8061 42.3333 43 40.9689 43 39.2857V34.7143M37.6667 34.7143H44.3333C45.0697 34.7143 45.6667 34.1173 45.6667 33.3809V29.9524C45.6667 29.216 45.0697 28.6191 44.3333 28.6191H37.6667C36.1939 28.6191 35 29.9835 35 31.6667C35 33.3499 36.1939 34.7143 37.6667 34.7143Z" stroke="white" stroke-width="3" stroke-linecap="round" stroke-linejoin="round"/>
</svg>