<svg width="62" height="62" viewBox="0 0 62 62" fill="none" xmlns="http://www.w3.org/2000/svg">
<circle cx="31" cy="31" r="31" fill="#F38930"/>
<g clip-path="url(#clip0)">
<path d="M27.458 26.5287H21.5962V24.3697H26.9732C26.9291 23.9379 26.885 23.5061 26.885 23.0743C26.885 22.4697 26.9291 21.9084 27.0173 21.347H21.5962V19.188H27.5902C28.3395 17.2017 29.7058 15.4745 31.4247 14.2222H20.0976C17.4973 14.2222 15.4258 16.2517 15.4258 18.7994V46.1759H37.9036C40.3276 46.1759 42.311 44.2328 42.311 41.8579V33.3081C41.0328 33.8263 39.6224 34.0853 38.1239 34.0853C33.1436 34.0853 28.9565 30.9332 27.458 26.5287ZM21.5962 29.5514H26.4443V31.7104H21.5962V29.5514ZM24.9017 41.8579C23.0947 41.8579 21.5962 40.3897 21.5962 38.6193C21.5962 36.8489 23.0947 35.3808 24.9017 35.3808C26.7087 35.3808 28.2073 36.8489 28.2073 38.6193C28.2073 40.3897 26.7087 41.8579 24.9017 41.8579ZM32.3943 41.8579H30.1906V39.267H32.3943V41.8579ZM36.361 41.8579H34.1573V35.8126H36.361V41.8579Z" fill="white"/>
<path d="M45.7486 27.781C46.6301 26.3992 47.159 24.8015 47.159 23.0743C47.159 18.1949 43.1042 14.2222 38.1238 14.2222C33.1434 14.2222 29.0886 18.1949 29.0886 23.0743C29.0886 27.9537 33.1434 31.9263 38.1238 31.9263C40.0631 31.9263 41.8701 31.3218 43.3245 30.2854L47.732 34.6035C48.349 35.208 49.3627 35.208 50.0238 34.6035L50.2442 34.3876C50.5527 34.0853 50.729 33.6967 50.729 33.2649C50.729 32.8331 50.5527 32.4445 50.2442 32.1422L45.7486 27.781ZM38.1238 29.7673C34.3775 29.7673 31.2923 26.7446 31.2923 23.0743C31.2923 19.4039 34.3775 16.3813 38.1238 16.3813C41.8701 16.3813 44.9553 19.4039 44.9553 23.0743C44.9553 26.7446 41.8701 29.7673 38.1238 29.7673Z" fill="white"/>
<path d="M37.9918 21.088C38.0799 21.088 38.9173 21.088 38.9173 21.4334H41.121C41.121 20.4402 40.504 19.4471 39.2258 19.1016V17.9358H37.0221V19.0585C35.7881 19.4039 35.127 20.4402 35.127 21.4334C35.127 23.2902 36.8458 23.6788 37.8155 23.9379C38.9614 24.197 38.9614 24.3265 38.9614 24.4992C38.9614 24.6288 38.9614 24.8447 38.0358 24.8447C37.8595 24.8447 37.3307 24.8015 37.3307 24.4992H35.127C35.127 25.6651 35.8762 26.5287 37.0221 26.8742V28.04H39.2258V26.8742C40.5921 26.4855 41.121 25.4924 41.121 24.4992C41.121 22.5129 39.314 22.0811 38.3003 21.822C37.9477 21.7357 37.4188 21.6061 37.3307 21.5198C37.3307 21.5198 37.3307 21.5198 37.3307 21.4334C37.3307 21.1311 37.7714 21.088 37.9918 21.088Z" fill="white"/>
</g>
<defs>
<clipPath id="clip0">
<rect x="15.4258" y="14.2222" width="35.2593" height="31.9537" fill="white"/>
</clipPath>
</defs>
</svg>
