<svg width="62" height="62" viewBox="0 0 62 62" fill="none" xmlns="http://www.w3.org/2000/svg">
<circle cx="31" cy="31" r="31" fill="white"/>
<path d="M51.9627 12.4757H25.1376C24.3846 12.4757 23.8198 13.0854 23.8198 13.7888V48.1642C23.8198 48.9146 24.4316 49.4773 25.1376 49.4773H51.9627C52.7157 49.4773 53.2805 48.8677 53.2805 48.1642V13.7888C53.2805 13.0854 52.6687 12.4757 51.9627 12.4757ZM30.079 16.5557H42.9269C43.6328 16.5557 44.1976 17.1185 44.1976 17.822C44.1976 18.5254 43.6328 19.0413 42.9269 19.0413H30.079C29.3731 19.0413 28.8084 18.4785 28.8084 17.7751C28.8084 17.0716 29.4202 16.5557 30.079 16.5557ZM42.9269 44.6001H30.079C29.3731 44.6001 28.8084 44.0373 28.8084 43.3339C28.8084 42.6304 29.3731 42.0676 30.079 42.0676H42.9269C43.6328 42.0676 44.1976 42.6304 44.1976 43.3339C44.1976 44.0373 43.6328 44.6001 42.9269 44.6001ZM47.2095 40.3325H30.079C29.3731 40.3325 28.8084 39.7697 28.8084 39.0662C28.8084 38.3628 29.3731 37.8 30.079 37.8H47.2095C47.9154 37.8 48.4802 38.3628 48.4802 39.0662C48.4802 39.7697 47.9154 40.3325 47.2095 40.3325ZM28.8554 34.8455C28.8554 34.1421 29.4202 33.5793 30.1261 33.5793H42.9739C43.6799 33.5793 44.2446 34.1421 44.2446 34.8455C44.2446 35.549 43.6799 36.1117 42.9739 36.1117H30.079C29.4202 36.0648 28.8554 35.5021 28.8554 34.8455ZM47.2095 31.7972H30.079C29.3731 31.7972 28.8084 31.2345 28.8084 30.531C28.8084 29.8276 29.3731 29.2648 30.079 29.2648H47.2095C47.9154 29.2648 48.4802 29.8276 48.4802 30.531C48.4802 31.2345 47.9154 31.7972 47.2095 31.7972ZM28.8554 26.3103C28.8554 25.6068 29.4202 25.0441 30.1261 25.0441H42.9739C43.6799 25.0441 44.2446 25.6068 44.2446 26.3103C44.2446 27.0137 43.6799 27.5765 42.9739 27.5765H30.079C29.4202 27.5296 28.8554 27.0137 28.8554 26.3103ZM47.2095 23.3089H30.079C29.3731 23.3089 28.8084 22.7461 28.8084 22.0427C28.8084 21.3392 29.3731 20.7765 30.079 20.7765H47.2095C47.9154 20.7765 48.4802 21.3392 48.4802 22.0427C48.4331 22.7461 47.9154 23.3089 47.2095 23.3089Z" fill="#8E07C3"/>
<path d="M8.38346 21.8551H21.2313C21.9372 21.8551 22.502 21.2923 22.502 20.5888C22.502 19.8854 21.9372 19.3226 21.2313 19.3226H8.38346C7.67753 19.3226 7.11279 19.8854 7.11279 20.5888C7.11279 21.2923 7.67753 21.8551 8.38346 21.8551Z" fill="#8E07C3"/>
<path d="M21.2313 36.44H8.38346C7.67753 36.44 7.11279 37.0028 7.11279 37.7062C7.11279 38.4097 7.67753 38.9725 8.38346 38.9725H21.2313C21.9372 38.9725 22.502 38.4097 22.502 37.7062C22.502 37.0028 21.8902 36.44 21.2313 36.44Z" fill="#8E07C3"/>
<path d="M21.2313 40.6607H8.38346C7.67753 40.6607 7.11279 41.2235 7.11279 41.927C7.11279 42.6304 7.67753 43.1932 8.38346 43.1932H21.2313C21.9372 43.1932 22.502 42.6304 22.502 41.927C22.4549 41.2235 21.8902 40.6607 21.2313 40.6607Z" fill="#8E07C3"/>
<path d="M8.38346 30.3903H18.2194L16.431 32.1255C15.9604 32.5945 15.9604 33.3917 16.431 33.9076C16.6663 34.1421 16.9958 34.2828 17.3252 34.2828C17.6546 34.2828 17.9841 34.1421 18.2194 33.9076L22.1255 30.0152C22.1725 29.9683 22.2196 29.8745 22.2667 29.8276C22.2667 29.7807 22.3137 29.7807 22.3137 29.7338C22.3608 29.64 22.4079 29.5462 22.4079 29.4524C22.4079 29.4055 22.4079 29.4055 22.4549 29.3586C22.502 29.2179 22.502 29.0303 22.4549 28.8896C22.4549 28.8427 22.4549 28.8427 22.4079 28.7958C22.4079 28.702 22.3608 28.6082 22.3137 28.5145C22.3137 28.4676 22.2667 28.4676 22.2667 28.4207C22.2196 28.3738 22.1725 28.28 22.1255 28.2331L18.2194 24.3406C17.9841 24.1061 17.6546 23.9655 17.3252 23.9655C16.9958 23.9655 16.6663 24.1061 16.431 24.3406C15.9604 24.8096 15.9604 25.6068 16.431 26.1227L18.1723 27.8579H8.38346C7.67753 27.8579 7.11279 28.4207 7.11279 29.1241C7.11279 29.8276 7.67753 30.3903 8.38346 30.3903ZM17.3252 33.7669C17.3723 33.7669 17.3723 33.7669 17.4193 33.7669C17.3723 33.7669 17.3723 33.7669 17.3252 33.7669ZM21.9843 28.9834C21.9843 29.0772 21.9843 29.171 21.9843 29.2648C21.9843 29.171 21.9843 29.0772 21.9843 28.9834ZM17.2311 24.4813C17.2781 24.4813 17.2781 24.4813 17.3252 24.4813C17.2781 24.4813 17.2781 24.4813 17.2311 24.4813Z" fill="#8E07C3"/>
</svg>
