<svg width="62" height="62" viewBox="0 0 62 62" fill="none" xmlns="http://www.w3.org/2000/svg">
<circle cx="31" cy="31" r="31" fill="white"/>
<path d="M46.7438 34.8704C45.9715 35.1316 45.1992 35.4451 44.4269 35.7063C43.9635 35.863 42.0585 36.6466 40.2565 37.4302C39.7931 37.6392 39.3297 37.8482 38.9178 38.0049C38.9693 38.1616 39.0208 38.2661 39.0208 38.4228C39.1753 39.2587 38.9178 40.1468 38.403 40.8782C38.3 40.9826 38.4545 41.1916 38.6089 41.1394C38.7634 41.0871 38.9178 40.9826 39.0723 40.8782C40.6684 39.9901 45.817 37.6392 46.6408 37.2735C47.0527 37.0646 47.5675 36.9078 48.0309 36.7511C48.2883 36.6466 48.5458 36.5421 48.7517 36.4899C48.8547 36.4377 48.9577 36.3854 49.0606 36.3854C49.1636 36.3854 49.3181 36.3332 49.3696 36.2287C49.524 36.0197 49.3181 35.863 49.2151 35.7063C48.6488 34.8704 47.6705 34.5047 46.7438 34.8704Z" fill="#8E07C3"/>
<path d="M53.5916 38.1616C53.4886 38.0049 53.4371 37.8481 53.3341 37.7437C52.7163 36.9078 51.6866 36.5421 50.6568 36.96C49.8845 37.2735 49.0608 37.5869 48.2885 37.9526C47.4132 38.3183 42.0071 40.8259 40.3081 41.714C39.0724 42.3409 37.4248 43.02 35.8803 43.3335C34.6961 43.3857 33.5119 43.3857 32.3277 43.4379H32.2762C31.2465 43.3335 30.2168 43.229 29.2385 43.02C28.9811 42.9678 28.7237 42.9155 28.4662 42.8633C28.3118 42.8111 28.2088 42.7066 28.2088 42.5498C28.2088 42.3931 28.2603 42.2886 28.4147 42.1842C28.7237 42.0274 29.0326 41.923 29.3415 41.8185C31.0405 42.0797 32.7911 42.0797 34.4901 41.8185C34.8505 41.7662 35.2109 41.714 35.5713 41.5573C36.2921 41.2961 37.013 40.9304 37.5278 40.199C38.1971 39.3109 38.0942 38.1616 37.3219 37.4825C37.2189 37.378 37.1674 37.378 37.0644 37.2735C37.013 37.2213 36.9615 37.2213 36.91 37.169V35.654C37.5278 35.7585 38.2486 35.9152 38.9694 35.9152C40.3081 35.9152 41.7497 35.654 43.0883 35.0794C45.8686 33.9823 48.1855 31.9971 49.0093 29.6985C49.2667 29.0716 49.0093 28.497 48.3914 28.2358C46.332 27.1387 43.2943 27.0342 40.514 28.1313C39.0724 28.7582 37.8367 29.4896 36.7555 30.4821V27.2954C41.4923 26.6685 45.1993 22.4893 45.1993 17.5786C45.1993 12.1978 40.8744 7.75726 35.5199 7.75726C30.1653 7.75726 25.8919 12.1978 25.8919 17.5786C25.8919 19.407 26.3553 21.131 27.3335 22.7505C25.5315 22.7505 23.8325 23.1162 22.4938 23.952C22.0304 24.2132 21.876 24.7879 22.0304 25.3103C22.7512 27.8701 25.0681 30.2209 28.0543 31.4225C29.393 31.8927 30.7316 32.1539 32.0703 32.1539C32.8941 32.1539 33.6663 32.0494 34.4901 31.7882V36.5421C33.6149 36.4899 32.7396 36.4376 31.8128 36.3854C30.5257 36.2809 29.29 36.0197 28.2088 35.2883C27.7969 35.1316 27.4365 35.0271 27.0246 34.8704C26.9216 34.9226 26.8701 34.9226 26.8187 34.9226C26.6127 34.8182 26.4068 34.7659 26.1493 34.6614C22.6483 33.4599 18.9927 33.8778 15.3372 33.9301C15.3372 33.6689 15.3372 33.4076 15.2857 33.1464C15.2342 32.3106 14.8738 31.9449 14.05 31.9971C11.9391 32.0494 9.77668 32.1016 7.66574 32.1539C7.56277 32.1539 7.40831 32.2061 7.15088 32.2061C7.25385 33.3554 7.35682 34.5047 7.51128 35.6018C7.61426 36.2809 7.71723 36.96 7.87169 37.6392C8.5925 41.0349 9.93114 44.2216 11.7846 47.1993C11.8876 47.356 12.1451 47.5128 12.351 47.5128C12.7114 47.5128 13.0718 47.5128 13.4322 47.5128C13.7926 47.5128 14.153 47.4605 14.5134 47.4605C15.0798 47.4083 15.4402 47.1993 15.5946 46.7291C15.6461 46.6247 15.6976 46.4157 15.6976 46.259C15.6976 46.05 15.6976 45.841 15.6976 45.6321C17.3452 46.1022 18.9927 46.6247 20.6403 47.0948C23.6265 48.0874 26.7157 49.0277 29.8049 49.8114C31.0405 50.1248 32.3277 50.3338 33.5119 50.2293C34.8505 50.1771 36.1377 49.8636 37.3734 49.1322C37.4248 49.08 37.4763 49.0277 37.5278 49.0277C38.3516 48.7143 39.1239 48.4009 39.8962 48.0874C43.8606 46.4679 47.5162 44.1693 51.1202 41.923C51.6866 41.6095 52.2014 41.2438 52.7163 40.9304C52.9222 40.8259 53.0767 40.6692 53.2312 40.4602C53.3856 40.2512 53.5401 39.99 53.643 39.7288C54.0035 39.2587 53.9005 38.6318 53.5916 38.1616ZM41.4923 30.4821C43.1913 29.8553 44.8904 29.6463 46.229 30.012C45.4052 31.2135 43.9121 32.2061 42.2131 32.9375C40.514 33.5644 38.815 33.7733 37.4763 33.4076C38.3516 32.2061 39.7932 31.0568 41.4923 30.4821ZM35.6743 10.2126C39.6903 10.2126 42.9339 13.5038 42.9339 17.5786C42.9339 21.6534 39.6903 24.9446 35.6743 24.9446C31.6584 24.9446 28.4147 21.6534 28.4147 17.5786C28.4147 13.5038 31.6584 10.2126 35.6743 10.2126ZM29.0326 29.1239C27.2306 28.3925 25.6345 27.0342 24.8107 25.5715C26.4068 24.9446 28.3118 24.9446 30.1138 25.676C31.298 26.5118 32.7911 27.1387 34.4901 27.3999V29.3851C32.997 29.9597 31.092 29.8553 29.0326 29.1239Z" fill="#8E07C3"/>
<path d="M36.2922 20.0339H33.2545C32.5337 20.0339 32.0703 20.5041 32.0703 21.2355C32.0703 21.9669 32.5337 22.437 33.2545 22.437H34.4387C34.4387 23.1684 34.902 23.6386 35.6228 23.6386C36.3437 23.6386 36.807 23.1684 36.807 22.437V22.3848C38.1457 22.1236 39.2269 20.922 39.2269 19.4593C39.2269 17.7353 37.8882 16.3771 36.1892 16.3771H35.005C34.6446 16.3771 34.3872 16.1159 34.3872 15.7502C34.3872 15.3845 34.6446 15.1233 35.005 15.1233H38.0427C38.7635 15.1233 39.2269 14.6531 39.2269 13.9217C39.2269 13.1904 38.7635 12.7202 38.0427 12.7202H36.8585C36.8585 11.9366 36.3951 11.4142 35.6743 11.4142C34.9535 11.4142 34.4387 11.9366 34.4387 12.6679V12.7724C33.1 13.0336 32.0188 14.2352 32.0188 15.6979C32.0188 17.4219 33.3574 18.7802 35.0565 18.7802H36.2407C36.6011 18.7802 36.8585 19.0414 36.8585 19.407C36.8585 19.7727 36.6526 20.0339 36.2922 20.0339Z" fill="#8E07C3"/>
</svg>
