<svg width="62" height="62" viewBox="0 0 62 62" fill="none" xmlns="http://www.w3.org/2000/svg">
<circle cx="31" cy="31" r="31" fill="#C23EAD"/>
<g clip-path="url(#clip0)">
<path d="M31.6228 21.3444C29.3738 21.3444 27.5264 23.2068 27.5264 25.4742C27.5264 27.7415 29.3738 29.6039 31.6228 29.6039C33.8718 29.6039 35.7192 27.7415 35.7192 25.4742C35.7192 23.2068 33.8718 21.3444 31.6228 21.3444ZM33.0686 25.4742C33.0686 26.2839 32.426 26.9317 31.6228 26.9317C30.8196 26.9317 30.177 26.2839 30.177 25.4742C30.177 24.6644 30.8196 24.0166 31.6228 24.0166C32.426 24.0166 33.0686 24.6644 33.0686 25.4742Z" fill="white"/>
<path d="M43.4301 38.8352H37.165H37.0044H34.4341V41.5074H37.0044H37.165H43.4301V38.8352Z" fill="white"/>
<path d="M42.9482 43.7747H42.7876H40.0566V46.4469H42.7876H42.9482H48.9724V43.7747H42.9482Z" fill="white"/>
<path d="M8.89159 24.0976H8.81127H6V26.8508H8.81127H8.89159H13.5503V24.0976H8.89159Z" fill="white"/>
<path d="M30.8195 32.843C30.2572 32.1142 29.6146 31.5474 28.8114 31.0615C28.8114 31.0615 28.7311 31.0615 28.7311 30.9805C28.4901 30.8186 28.2492 30.6566 28.0082 30.5757C27.9279 30.5757 27.9279 30.5757 27.8476 30.4947C27.6066 30.4137 27.3656 30.2517 27.1247 30.1708C27.0443 30.1708 27.0443 30.1708 26.964 30.0898C26.7231 30.0088 26.4821 29.9278 26.2411 29.8469C26.1608 29.8469 26.1608 29.8469 26.0805 29.7659C25.8395 29.6849 25.5986 29.6849 25.3576 29.6039C25.2773 29.6039 25.1969 29.6039 25.1969 29.6039C24.8757 29.6039 24.5544 29.523 24.2331 29.523H17.0041H15.719H8.48999C8.08838 29.523 7.84741 29.8469 7.84741 30.1708C7.84741 33.0049 9.85546 35.3532 12.4258 36.001C12.5864 38.1064 13.7912 39.8069 15.719 40.6976C15.719 40.6976 15.719 40.6976 15.719 40.7786C15.719 44.2606 18.4499 46.6899 22.3054 46.6899H23.8315H24.956C29.3737 46.285 32.7472 42.5601 32.7472 38.1064C32.7472 36.7298 32.4259 35.3532 31.7833 34.2196C31.4621 33.7337 30.9801 33.0859 30.8195 32.843Z" fill="white"/>
<path d="M15.7993 16C15.478 16 15.1567 16.1619 14.9158 16.4049C14.6748 16.6478 14.5945 16.9717 14.5945 17.2956V29.6849H16.7632V22.3161C18.7712 21.9112 20.3777 20.2917 20.7793 18.2673H42.4662C42.8678 20.2917 44.4742 21.9112 46.4823 22.3161V28.7132C44.4742 29.1181 42.8678 30.7376 42.4662 32.762H30.4982L30.8998 33.4098C31.0605 33.6528 31.5424 34.3815 31.7834 34.7864L31.8637 35.0294H47.6068C48.2494 35.0294 48.7313 34.5435 48.7313 33.8957V17.2146C48.7313 16.4858 48.169 16 47.5265 16H15.7993ZM46.4823 30.9806V32.762H44.7152C45.0365 31.9523 45.6791 31.3045 46.4823 30.9806ZM44.7152 18.1863H46.4823V19.9678C45.6791 19.6439 45.0365 18.9961 44.7152 18.1863ZM18.5303 18.1863C18.209 18.9961 17.5664 19.6439 16.7632 19.9678V18.1863H18.5303Z" fill="white"/>
</g>
<defs>
<clipPath id="clip0">
<rect x="6" y="16" width="42.9722" height="30.8519" fill="white"/>
</clipPath>
</defs>
</svg>
