<svg width="62" height="62" viewBox="0 0 62 62" fill="none" xmlns="http://www.w3.org/2000/svg">
<circle cx="31" cy="31" r="31" fill="#E2705B"/>
<g clip-path="url(#clip0)">
<path d="M36.6812 25.8261V24.092H37.4083C38.0546 24.092 38.5394 23.5965 38.5394 22.9359C38.5394 22.2754 38.0546 21.7799 37.4083 21.7799H25.2902C24.6439 21.7799 24.1592 22.2754 24.1592 22.9359C24.1592 23.5965 24.6439 24.092 25.2902 24.092H26.0173V25.8261C26.0173 27.2298 26.5828 28.4684 27.633 29.2942L29.4104 30.7805L27.633 32.2669C26.5828 33.0926 26.0173 34.4138 26.0173 35.735V37.469H25.2902C24.6439 37.469 24.1592 37.9645 24.1592 38.6251C24.1592 39.2857 24.6439 39.7811 25.2902 39.7811H37.4083C38.0546 39.7811 38.5394 39.2857 38.5394 38.6251C38.5394 37.9645 38.0546 37.469 37.4083 37.469H36.6812V35.9001C36.6812 34.4964 36.1157 33.2577 35.0655 32.432L33.2882 30.9457L35.0655 29.4593C36.1157 28.4684 36.6812 27.2298 36.6812 25.8261ZM33.6113 34.2486C34.096 34.6615 34.3384 35.2395 34.3384 35.9001V37.6342H28.4409V35.9001C28.4409 35.2395 28.6833 34.6615 29.168 34.2486L31.3493 32.432L33.6113 34.2486ZM34.3384 25.8261C34.3384 26.4866 34.096 27.0647 33.6113 27.4775L31.4301 29.2942L29.2488 27.4775C28.7641 27.0647 28.5217 26.4866 28.5217 25.8261V24.092H34.4192V25.8261H34.3384Z" fill="white"/>
<path d="M41.6098 44.653C42.0946 44.2401 42.1754 43.5795 41.7714 43.0841C41.3675 42.5886 40.7212 42.5061 40.2365 42.9189C34.8237 47.2128 26.5026 46.7174 21.5745 41.928C16.5657 37.3865 15.4347 29.0464 19.0701 23.2662C20.7667 20.3761 23.5134 18.0641 26.6642 17.0732C29.8149 15.9997 33.2887 15.9997 36.3587 17.2383C39.4286 18.3944 42.0946 20.7064 43.7103 23.5965C44.5182 25.0829 45.0837 26.6518 45.4069 28.3033L45.5684 29.5419L45.6492 30.7805V32.3494L43.5487 30.2851C42.9024 29.6245 41.8522 29.707 41.2059 30.3676C40.5596 31.0282 40.6404 32.1017 41.2867 32.7623L46.1339 37.5516C46.4571 37.8819 46.861 38.0471 47.265 38.0471C47.6689 38.0471 48.0728 37.8819 48.396 37.5516L53.4048 32.6797C54.0511 32.0191 54.1319 30.9457 53.4856 30.2851C52.8393 29.6245 51.7891 29.5419 51.1428 30.2025L49.0423 32.2668V30.6154L48.9615 29.0464L48.7191 27.4775C48.3152 25.4957 47.5881 23.514 46.5379 21.6973C44.5182 18.1466 41.2059 15.4217 37.4089 14.0179C33.6119 12.6141 29.4109 12.6141 25.6947 14.0179C21.8977 15.3391 18.6662 18.1466 16.6465 21.6148C14.6268 25.248 13.8189 29.4593 14.4652 33.4229C15.0308 37.3865 17.0504 41.1849 20.0396 43.8273C22.9479 46.4696 26.8257 48.1211 30.7035 48.2037C34.5813 48.4514 38.5399 47.1302 41.6098 44.653Z" fill="white"/>
</g>
<defs>
<clipPath id="clip0">
<rect x="14.2222" y="12.9444" width="39.6667" height="35.2593" fill="white"/>
</clipPath>
</defs>
</svg>
