<svg width="62" height="62" viewBox="0 0 62 62" fill="none" xmlns="http://www.w3.org/2000/svg">
<circle cx="31" cy="31" r="31" fill="#D35883"/>
<g clip-path="url(#clip0)">
<path d="M31.9909 9.98598V9H29.9168V9.98598C20.625 10.5611 13.3242 18.2025 13.3242 27.4049V27.5693H15.3983V27.4049C15.3983 24.94 17.3894 22.968 19.8783 22.968C22.3672 22.968 24.3583 24.94 24.3583 27.4049V27.5693H26.4324V27.4049C26.4324 25.3508 27.8427 23.5432 29.9168 23.0502V32.5813H31.9909V23.1324C33.982 23.6253 35.4753 25.3508 35.4753 27.4871V27.6514H37.5494V27.4871C37.5494 25.0221 39.5405 23.0502 42.0294 23.0502C44.5183 23.0502 46.5094 25.0221 46.5094 27.4871V27.6514H48.5835V27.4871C48.5835 18.2025 41.3657 10.5611 31.9909 9.98598ZM45.5138 21.8999C44.1035 20.9961 42.4442 20.7496 40.785 21.0782C39.0427 21.4069 37.4664 22.475 36.5538 23.954C35.3094 22.0642 33.3183 20.9961 30.9953 20.9961C28.7553 20.9961 26.6813 22.1464 25.4368 23.954C24.4413 22.475 22.9479 21.4069 21.2057 21.0782C19.5464 20.7496 17.8872 21.0782 16.4768 21.8999C18.7998 15.984 24.5242 12.0401 30.9953 12.0401C37.4664 12.0401 43.1909 15.984 45.5138 21.8999Z" fill="white"/>
<path d="M30.9126 51.9722C37.2178 51.9722 42.2785 46.9602 42.2785 40.7156C42.2785 34.4711 37.1348 29.459 30.9126 29.459C24.6904 29.459 19.6296 34.5533 19.6296 40.7156C19.6296 46.878 24.6904 51.9722 30.9126 51.9722ZM30.8296 41.373C29.917 41.1265 28.2578 40.7156 28.2578 38.9902C28.2578 38.0042 28.8385 37.0182 30.083 36.6896V35.6214H32.157V36.7717C33.4015 37.1004 33.9822 38.0864 33.9822 39.0723H31.9082C31.9082 38.7437 31.1615 38.7437 30.9956 38.7437C30.7467 38.7437 30.3319 38.8258 30.3319 39.0723C30.3319 39.1545 30.3319 39.1545 30.3319 39.1545C30.4148 39.2367 30.9956 39.401 31.2445 39.4832C32.157 39.7297 33.8993 40.1405 33.8993 42.0303C33.8993 42.9341 33.4015 43.9201 32.0741 44.3309V45.4812H30V44.4131C28.9215 44.0844 28.1748 43.2627 28.1748 42.1124H30.2489C30.2489 42.4411 30.7467 42.4411 30.9126 42.4411C31.8252 42.4411 31.8252 42.1946 31.8252 42.1124C31.9082 41.7838 31.9082 41.6194 30.8296 41.373Z" fill="white"/>
</g>
<defs>
<clipPath id="clip0">
<rect x="13.3242" y="9" width="35.2593" height="42.9722" fill="white"/>
</clipPath>
</defs>
</svg>
