<svg width="62" height="62" viewBox="0 0 62 62" fill="none" xmlns="http://www.w3.org/2000/svg">
<circle cx="31" cy="31" r="31" fill="#AC1CE6"/>
<g clip-path="url(#clip0)">
<path d="M30.6824 35.6948C30.6024 35.772 30.5224 35.8493 30.4423 36.0039L26.7608 42.263C26.2006 43.0357 26.7608 43.963 27.7212 43.963H35.1643C36.0447 43.963 36.6849 43.0357 36.2047 42.263L32.5232 36.0039C32.4432 35.8493 32.3631 35.772 32.2831 35.6948" fill="white"/>
<path d="M45.4086 32.2948C50.6108 32.2948 54.7725 28.2766 54.7725 23.2539C54.7725 18.2311 50.5307 14.213 45.4086 14.213C40.2865 14.213 36.1248 18.3084 36.1248 23.2539C36.1248 28.1993 40.2865 32.2948 45.4086 32.2948ZM45.4086 23.7948C44.6883 23.6402 43.3277 23.3311 43.3277 21.863C43.3277 21.0902 43.8079 20.3175 44.8484 20.0084V19.1584H46.6091V20.0857C47.6495 20.3948 48.1297 21.1675 48.1297 21.9402H46.369C46.369 21.7084 45.7287 21.6311 45.6487 21.6311C45.4086 21.6311 45.0885 21.6311 45.0885 21.9402C45.0885 22.0175 45.0885 22.0175 45.0885 22.0175C45.1685 22.0948 45.5687 22.1721 45.8888 22.2493C46.6891 22.4039 48.1297 22.7902 48.1297 24.3357C48.1297 25.1084 47.7296 25.8811 46.6091 26.1902V27.1175H44.8484V26.2675C43.968 26.0357 43.3277 25.3402 43.3277 24.413H45.0885C45.0885 24.6448 45.4886 24.7221 45.6487 24.7221C46.369 24.7221 46.369 24.5675 46.369 24.413C46.289 24.0266 46.289 23.9493 45.4086 23.7948Z" fill="white"/>
<path d="M53.4118 36.9311H9.39359C8.43319 36.9311 7.71289 36.2357 7.71289 35.3084C7.71289 34.3811 8.43319 33.6857 9.39359 33.6857H53.4118C54.3722 33.6857 55.0925 34.3811 55.0925 35.3084C55.0925 36.1584 54.2922 36.9311 53.4118 36.9311Z" fill="white"/>
<path d="M8.67336 31.9084L26.6808 31.8311C26.7609 31.8311 26.8409 31.8312 26.9209 31.7539C27.161 31.6766 27.3211 31.5221 27.4812 31.3675C27.6412 31.0584 27.6412 30.7493 27.5612 30.4402L18.4374 15.7584C18.1973 15.2948 17.6371 15.1402 17.1569 15.3721C16.9968 15.4493 16.8367 15.6039 16.7567 15.7584L7.87303 30.5175C7.71296 30.8266 7.71296 31.213 7.95306 31.5221C8.11313 31.7539 8.43326 31.9084 8.67336 31.9084ZM18.5975 21.7084L18.6775 25.4175C18.6775 25.8811 18.3574 26.1902 17.9572 26.3448C17.8772 26.3448 17.7971 26.4221 17.7171 26.4221C17.1569 26.4221 16.7567 26.0357 16.7567 25.4948L16.6767 21.7857C16.6767 21.2448 17.0768 20.8584 17.6371 20.8584C18.1173 20.7811 18.5975 21.1675 18.5975 21.7084ZM16.7567 28.1221C16.7567 27.6584 17.1569 27.1948 17.7171 27.1948C18.2773 27.1948 18.6775 27.5811 18.6775 28.1221C18.6775 28.5857 18.3574 28.9721 17.9572 29.0493L17.7171 29.1266C17.1569 29.1266 16.7567 28.663 16.7567 28.1221C16.7567 28.1993 16.7567 28.1221 16.7567 28.1221Z" fill="white"/>
</g>
<defs>
<clipPath id="clip0">
<rect x="7.71289" y="14.213" width="47.3796" height="29.75" fill="white"/>
</clipPath>
</defs>
</svg>
