<svg width="62" height="62" viewBox="0 0 62 62" fill="none" xmlns="http://www.w3.org/2000/svg">
<circle cx="31" cy="31" r="31" fill="white"/>
<path d="M32.324 55H28.7818C27.4601 55 26.4027 53.945 26.4027 52.6263V49.5668C26.4027 49.303 26.1384 48.9865 25.9269 48.9338L25.8211 48.881L21.3802 47.0348C21.3802 47.0348 21.2745 47.0348 21.1687 47.0348C20.9573 47.0348 20.7458 47.1403 20.64 47.193L18.4724 49.3558C17.9966 49.7778 17.4151 50.0415 16.7807 50.0415C16.1462 50.0415 15.5647 49.7778 15.1417 49.3558L12.6569 46.8765C11.7582 45.9798 11.7582 44.4501 12.6569 43.5533L14.8245 41.3906C14.9831 41.2323 15.036 40.8103 14.9303 40.5993L14.8774 40.4938L13.0799 36.1156C13.027 35.9046 12.6569 35.6409 12.4454 35.6409H9.37908C8.05737 35.6409 7 34.5859 7 33.2671V29.7329C7 28.4141 8.05737 27.3591 9.37908 27.3591H12.4454C12.7098 27.3591 13.027 27.0954 13.0799 26.8844L13.1327 26.7789L14.9303 22.4007C15.036 22.1897 14.9831 21.7677 14.8245 21.6094L12.6569 19.4467C11.7582 18.5499 11.7582 17.073 12.6569 16.1235L15.1417 13.6442C15.5647 13.2222 16.1462 12.9585 16.7807 12.9585C17.4151 12.9585 17.9966 13.2222 18.4196 13.6442L20.5872 15.807C20.6929 15.9125 20.8515 15.9652 21.1159 15.9652C21.2216 15.9652 21.3273 15.9652 21.3802 15.9125L21.4859 15.8597L25.874 14.0662C26.0855 14.0135 26.3498 13.6442 26.3498 13.4332V10.3737C26.3498 9.05499 27.4072 8 28.7289 8H32.2711C33.5928 8 34.6502 9.05499 34.6502 10.3737V13.4332C34.6502 13.697 34.9145 14.0135 35.126 14.0662L35.2317 14.119L39.6198 15.9652C39.6727 16.018 39.7784 16.018 39.8841 16.018C40.0956 16.018 40.3071 15.9125 40.4128 15.8597L42.5804 13.697C43.0034 13.275 43.6378 13.0112 44.2193 13.0112C44.8009 13.0112 45.4353 13.275 45.8583 13.697L48.3431 16.1762C49.2418 17.073 49.2418 18.6027 48.3431 19.4994L46.1755 21.6622C46.0169 21.8204 45.964 22.2424 46.0697 22.4534L46.1226 22.5589L47.9201 26.9372C47.973 27.1481 48.3431 27.4119 48.5546 27.4119H51.6209C52.9426 27.4119 54 28.4669 54 29.7856V33.3199C54 34.6386 52.9426 35.6936 51.6209 35.6936H48.5546C48.2902 35.6936 47.973 35.9574 47.9201 36.1684L47.8673 36.2739L46.0697 40.6521C45.964 40.8631 46.0169 41.2851 46.1755 41.4433L48.3431 43.6061C49.2418 44.5028 49.2418 46.0326 48.3431 46.9293L45.8583 49.4085C45.4353 49.8305 44.8009 50.0943 44.2193 50.0943C43.5849 50.0943 43.0034 49.8305 42.5804 49.4085L40.4128 47.2458C40.3071 47.1403 40.1485 47.0875 39.8841 47.0875C39.7784 47.0875 39.6727 47.0875 39.6198 47.1403L39.5141 47.193L35.126 48.9865C34.9145 49.0393 34.6502 49.4085 34.6502 49.6195V52.679C34.6502 53.945 33.5928 55 32.324 55ZM26.6142 46.9293C27.7244 47.2985 28.5703 48.459 28.5703 49.5668V52.6263C28.5703 52.7318 28.676 52.89 28.8346 52.89H32.3768C32.4826 52.89 32.6412 52.7845 32.6412 52.6263V49.5668C32.6412 48.4063 33.4871 47.2458 34.5973 46.9293L38.8268 45.1886C39.1968 44.9776 39.6198 44.9248 40.0427 44.9248C40.8358 44.9248 41.5759 45.2413 42.0517 45.7161L44.2193 47.8788C44.2722 47.9315 44.3251 47.9315 44.3779 47.9315C44.4308 47.9315 44.4837 47.9315 44.5366 47.8788L47.0214 45.3996C47.1271 45.2941 47.1271 45.1358 47.0214 45.0831L44.8538 42.9203C44.0607 42.1291 43.8493 40.7048 44.3779 39.7026L46.1226 35.4826C46.4927 34.3749 47.6029 33.5309 48.766 33.5309H51.8324C51.9381 33.5309 52.0967 33.4254 52.0967 33.2671V29.7329C52.0967 29.6274 51.991 29.4691 51.8324 29.4691H48.766C47.6029 29.4691 46.4927 28.6251 46.1226 27.5174L44.3779 23.2974C43.8493 22.2424 44.0607 20.8709 44.9066 20.0797L47.0742 17.9169C47.18 17.8114 47.18 17.6532 47.0742 17.6004L44.5894 15.1212C44.5366 15.0685 44.4837 15.0685 44.4308 15.0685C44.378 15.0685 44.3251 15.0685 44.2722 15.1212L42.1046 17.284C41.5759 17.8114 40.8886 18.0752 40.0956 18.0752C39.6727 18.0752 39.1968 17.9697 38.8268 17.7587L34.5973 16.018C33.4871 15.6487 32.6412 14.541 32.6412 13.3805V10.3737C32.6412 10.2155 32.5354 10.11 32.3768 10.11H28.8346C28.7289 10.11 28.5703 10.2155 28.5703 10.3737V13.4332C28.5703 14.5937 27.7244 15.7542 26.6142 16.0707L22.3847 17.8114C22.0146 18.0224 21.5917 18.1279 21.1687 18.1279C20.3757 18.1279 19.6884 17.8642 19.1597 17.3367L16.9921 15.174C16.8864 15.0685 16.7807 15.0685 16.6749 15.174L14.1901 17.6532C14.0844 17.7587 14.0844 17.9169 14.1901 17.9697L16.3577 20.1324C17.2036 20.9764 17.4151 22.3479 16.8864 23.3502L15.1417 27.5701C14.7717 28.6779 13.6614 29.5219 12.4983 29.5219H9.37908C9.22047 29.5219 9.11474 29.6274 9.11474 29.7329V33.2671C9.11474 33.3726 9.22047 33.5309 9.37908 33.5309H12.4454C13.6085 33.5309 14.7188 34.3749 15.0889 35.4826L16.8335 39.7026C17.3622 40.7576 17.1507 42.1291 16.3048 42.9203L14.1372 45.0831C14.0315 45.1886 14.0315 45.3468 14.1372 45.3996L16.622 47.8788C16.6749 47.9315 16.7278 47.9315 16.7807 47.9315C16.8335 47.9315 16.8864 47.9315 16.9393 47.8788L19.1069 45.7161C19.6355 45.1886 20.3228 44.9248 21.1159 44.9248C21.5388 44.9248 21.9618 45.0303 22.3318 45.1886L26.6142 46.9293Z" fill="#8E07C3"/>
<path d="M20.7043 40.7393C23.1567 43.341 26.6525 44.9541 30.5136 44.9541C34.3746 44.9541 37.8705 43.341 40.3228 40.7393H20.7043Z" fill="#8E07C3"/>
<path d="M20.7567 39.1782V37.409C20.7567 37.0968 20.9654 36.8887 21.2785 36.8887H22.8438C23.1568 36.8887 23.3656 37.0968 23.3656 37.409V39.1782H24.6178V35.5358C24.6178 35.2235 24.8265 35.0154 25.1396 35.0154H26.7049C27.0179 35.0154 27.2266 35.2235 27.2266 35.5358V39.1782H28.8441V33.0381C28.8441 32.7259 29.0528 32.5177 29.3659 32.5177H30.9312C31.2442 32.5177 31.4529 32.7259 31.4529 33.0381V39.2302H33.0704V30.5924C33.0704 30.2802 33.2791 30.0721 33.5922 30.0721H35.1575C35.4705 30.0721 35.6793 30.2802 35.6793 30.5924V39.1782H37.2967V27.9387C37.2967 27.6265 37.5054 27.4183 37.8185 27.4183H39.3838C39.6969 27.4183 39.9056 27.6265 39.9056 27.9387V39.1782H41.4709C42.984 36.9927 43.871 34.339 43.871 31.477C43.871 24.036 37.8185 18 30.3572 18C22.896 18 17 24.0881 17 31.5291C17 34.391 17.887 37.0448 19.4001 39.2302H20.7567V39.1782ZM36.3576 23.4637L35.6271 22.5791L38.7055 22.6311L38.1316 25.6491L37.4533 24.8166C31.1399 30.1241 19.5567 30.5404 19.0871 30.5924C19.1914 30.5924 30.4616 28.511 36.3576 23.4637Z" fill="#8E07C3"/>
</svg>
