<svg width="164" height="146" viewBox="0 0 164 146" fill="none" xmlns="http://www.w3.org/2000/svg">
<path d="M39.0969 128.651L34.3387 116.927H30.6114L25.7739 128.651L21.095 117.085V116.927H15.0679L24.4257 138.316L24.505 138.395H26.9634L32.4354 125.958L37.9073 138.316L37.9866 138.395H40.5244L49.8029 117.164L49.8822 116.927H43.8551L39.0969 128.651Z" fill="#262227"/>
<path d="M70.501 117.957C68.7563 117.085 66.6944 116.61 64.5532 116.61C62.412 116.61 60.4294 117.085 58.6848 117.957C56.9401 118.828 55.5126 120.175 54.561 121.759C53.6093 123.343 53.0542 125.324 53.0542 127.384C53.0542 129.523 53.53 131.503 54.4817 133.087C55.4333 134.751 56.7815 136.018 58.6055 136.969C60.4294 137.92 62.412 138.395 64.6325 138.395C66.7737 138.395 68.8356 137.92 70.6596 136.969C72.4836 136.018 73.9111 134.751 74.7834 133.087C75.7351 131.424 76.2109 129.523 76.2109 127.384C76.2109 125.324 75.7351 123.423 74.7834 121.759C73.6732 120.095 72.2457 118.828 70.501 117.957ZM64.4739 120.888C66.1393 120.888 67.5668 121.442 68.5184 122.551C69.5494 123.66 70.0252 125.245 70.0252 127.304C70.0252 129.443 69.5494 131.107 68.5184 132.295C67.5668 133.404 66.1393 134.038 64.4739 134.038C62.8086 134.038 61.5397 133.404 60.5087 132.216C59.5571 131.028 59.002 129.364 59.002 127.384C59.002 125.403 59.4778 123.819 60.5087 122.71C61.619 121.521 62.8879 120.888 64.4739 120.888Z" fill="#262227"/>
<path d="M87.7101 106.708H81.9209V137.999H87.7101V106.708Z" fill="#262227"/>
<path d="M104.919 133.721C103.967 133.721 103.254 133.483 102.698 132.929C102.143 132.374 101.905 131.661 101.905 130.79V121.363H109.043V116.927H101.905V111.461H101.192L92.944 120.254L92.8647 120.333V121.442H96.1162V131.186C96.1162 133.404 96.8299 135.147 98.0988 136.494C99.447 137.761 101.35 138.474 103.65 138.474C105.395 138.474 107.298 137.999 109.281 137.127L109.36 137.048V132.295L109.122 132.454C107.615 133.325 106.188 133.721 104.919 133.721Z" fill="#262227"/>
<path d="M117.845 107.341C116.973 107.341 116.259 107.658 115.545 108.292C114.911 108.926 114.594 109.718 114.594 110.589C114.594 111.461 114.911 112.174 115.545 112.887C116.18 113.52 116.973 113.916 117.845 113.916C118.718 113.916 119.511 113.6 120.145 112.887C120.779 112.253 121.097 111.461 121.097 110.589C121.097 109.718 120.779 108.926 120.145 108.292C119.511 107.658 118.718 107.341 117.845 107.341Z" fill="#262227"/>
<path d="M120.779 116.927H114.99V137.999H120.779V116.927Z" fill="#262227"/>
<path d="M140.764 127.304L149.25 116.927H142.271L137.354 123.343L132.358 117.006L132.279 116.927H125.3L134.023 127.304L125.3 137.999H132.12L137.354 131.265L142.826 137.92L142.905 137.999H149.884L140.764 127.304Z" fill="#262227"/>
<path d="M86.2826 39.5301C86.124 39.5301 69.4702 39.6093 69.7081 39.6093L51.5476 80.0108C49.4064 84.1302 51.7855 87.6158 57.0195 87.9327C59.0814 88.0911 68.0428 87.9327 73.594 87.8535L91.7545 47.6104C94.1337 43.3326 91.5959 39.847 86.2826 39.5301Z" fill="url(#paint0_linear)"/>
<path d="M148.377 11.5659C137.989 28.0434 124.19 32.5589 114.673 33.8264L93.6579 80.1693C91.3581 84.4471 94.6095 87.6158 100.002 88.0119C102.302 87.9327 115.784 87.9327 115.784 87.9327L155.515 7.60498C152.501 7.52576 150.519 8.08029 148.377 11.5659Z" fill="url(#paint1_linear)"/>
<path d="M58.0504 53.3142C56.3058 48.8779 50.9131 45.3131 45.917 45.3923C45.6791 45.3923 30.0563 45.4715 30.1356 45.4715L45.7584 80.0901C47.5031 84.5263 52.8957 88.0911 57.8918 88.0119C62.2535 88.0119 55.7506 88.0911 73.6733 87.9327L58.0504 53.3142Z" fill="url(#paint2_linear)"/>
<path d="M97.6232 47.452C95.8785 43.0157 90.4859 39.4509 85.4897 39.5301C85.3311 39.5301 69.629 39.6093 69.7083 39.6093L87.9482 80.0901C89.6928 84.5263 95.0855 88.0911 100.082 88.0119C101.747 88.0119 115.863 87.9327 115.863 87.9327L97.6232 47.452Z" fill="url(#paint3_linear)"/>
<defs>
<linearGradient id="paint0_linear" x1="83.4834" y1="39.151" x2="60.1693" y2="87.8296" gradientUnits="userSpaceOnUse">
<stop stop-color="#A20DFF"/>
<stop offset="0.9989" stop-color="#76007C"/>
</linearGradient>
<linearGradient id="paint1_linear" x1="142.869" y1="4.55847" x2="103.594" y2="86.5632" gradientUnits="userSpaceOnUse">
<stop stop-color="#A20DFF"/>
<stop offset="1" stop-color="#76007C"/>
</linearGradient>
<linearGradient id="paint2_linear" x1="42.3071" y1="43.3828" x2="61.587" y2="90.2557" gradientUnits="userSpaceOnUse">
<stop stop-color="#FF9C10"/>
<stop offset="1" stop-color="#A20DFF"/>
</linearGradient>
<linearGradient id="paint3_linear" x1="82.0479" y1="37.784" x2="103.551" y2="90.0611" gradientUnits="userSpaceOnUse">
<stop stop-color="#FF9C10"/>
<stop offset="1" stop-color="#A20DFF"/>
</linearGradient>
</defs>
</svg>
